<svg width="100" height="101" viewBox="0 0 100 101" fill="none" xmlns="http://www.w3.org/2000/svg">
<rect width="100" height="100" transform="translate(-0.00854492 0.386719)" fill="white"/>
<path d="M20.8248 71.22H16.6582C14.448 71.22 12.3284 70.3421 10.7656 68.7793C9.2028 67.2165 8.32483 65.0969 8.32483 62.8867V21.2201C8.32483 19.0099 9.2028 16.8903 10.7656 15.3275C12.3284 13.7647 14.448 12.8867 16.6582 12.8867H83.3248C85.535 12.8867 87.6546 13.7647 89.2174 15.3275C90.7802 16.8903 91.6582 19.0099 91.6582 21.2201V62.8867C91.6582 65.0969 90.7802 67.2165 89.2174 68.7793C87.6546 70.3421 85.535 71.22 83.3248 71.22H79.1582" stroke="#404C52" stroke-width="4" stroke-linecap="round" stroke-linejoin="round"/>
<path d="M49.9914 62.8867L70.8248 87.8867H29.1581L49.9914 62.8867Z" stroke="#404C52" stroke-width="4" stroke-linecap="round" stroke-linejoin="round"/>
</svg>
