<svg width="107" height="107" viewBox="0 0 107 107" fill="none" xmlns="http://www.w3.org/2000/svg">
<path d="M72.7495 41.2112C72.9871 40.2331 73.108 39.2429 73.108 38.2547C73.108 31.188 67.3494 25.4375 60.2705 25.4375C55.6789 25.4375 51.4508 27.9166 49.1646 31.8532C47.4549 30.6004 45.3886 29.9283 43.2689 29.9357C37.7582 29.9357 33.2752 34.4237 33.2752 39.9396C33.2752 40.3154 33.2945 40.682 33.3321 41.0375C26.9082 41.7738 22.0322 47.1597 22.0322 53.7734C22.0322 60.8402 27.7776 66.5906 34.8393 66.5906H44.8086C44.9782 66.7267 45.1438 66.8659 45.3246 66.9979C46.1625 67.6042 46.6723 68.6188 46.7231 69.7909L46.7292 69.9188C46.7292 69.9249 46.7251 69.93 46.7251 69.9371V74.3988C46.7261 74.8807 46.9123 75.3439 47.2452 75.6925C47.5781 76.0411 48.0322 76.2484 48.5136 76.2716V76.4107C48.5131 77.1802 48.8179 77.9185 49.3612 78.4634C49.9044 79.0084 50.6417 79.3155 51.4112 79.3174H53.5907C54.3614 79.3166 55.1003 79.0101 55.6452 78.4652C56.1902 77.9202 56.4967 77.1814 56.4975 76.4107V76.2695C56.9751 76.2416 57.4241 76.0325 57.7529 75.6848C58.0817 75.3372 58.2654 74.8772 58.2667 74.3988V69.9503L58.2677 69.9442C58.3185 68.7031 58.872 67.6052 59.7861 66.9309C59.9384 66.8181 60.0694 66.7044 60.2096 66.5916H70.1414C77.2142 66.5916 82.9687 60.8422 82.9687 53.7745C82.9713 50.8243 81.956 47.9636 80.0943 45.675C78.2326 43.3864 75.6384 41.8092 72.7495 41.2112ZM56.2354 74.2484H48.7574V70.9517H56.2354V74.2484ZM54.4662 76.4097C54.4659 76.6418 54.3736 76.8643 54.2095 77.0284C54.0454 77.1926 53.8229 77.2849 53.5907 77.2852H51.4112C51.1804 77.2835 50.9596 77.1905 50.7972 77.0264C50.6348 76.8623 50.5441 76.6405 50.5449 76.4097V76.2797H54.4652L54.4662 76.4097ZM56.3543 68.9164H48.67C48.4222 67.4519 47.6605 66.1803 46.5179 65.3546C46.277 65.1816 46.0438 64.9979 45.8192 64.8041C44.3634 63.5668 43.2853 61.9446 42.7083 60.1231C42.3328 58.9891 42.1716 57.795 42.233 56.602C42.4179 51.2323 46.9496 46.788 52.3334 46.6955C55.1121 46.6549 57.7406 47.7081 59.72 49.6591C61.6995 51.6102 62.7893 54.2152 62.7893 56.994C62.7893 60.0073 61.4791 62.8541 59.1716 64.8234C58.9837 64.9941 58.7857 65.1454 58.5805 65.2967C57.4227 66.1498 56.6407 67.4214 56.3543 68.9164ZM70.1424 64.5594H62.2246C62.2469 64.5309 62.2652 64.5005 62.2865 64.472C62.3525 64.3867 62.4104 64.2973 62.4744 64.21C62.8993 63.6266 63.2705 63.0059 63.5835 62.3555C63.6302 62.258 63.681 62.1635 63.7257 62.065C63.8882 61.7045 64.0364 61.3368 64.1634 60.961C64.1868 60.892 64.204 60.8219 64.2253 60.7528C64.3249 60.441 64.4132 60.1252 64.4884 59.8052C64.5179 59.6803 64.5422 59.5554 64.5676 59.4295C64.6245 59.1461 64.6712 58.8607 64.7078 58.5723C64.723 58.4514 64.7413 58.3305 64.7535 58.2087C64.942 56.3783 64.7155 54.529 64.0907 52.7982C63.466 51.0675 62.4591 49.4998 61.145 48.2119C58.7745 45.8749 55.6047 44.6257 52.2999 44.6633C45.8496 44.774 40.4232 50.0989 40.2018 56.5207C40.13 57.9537 40.3246 59.3877 40.7756 60.7498C40.9259 61.2291 41.1168 61.6923 41.3261 62.1473C41.5772 62.6996 41.8695 63.2323 42.2005 63.7408C42.2391 63.7997 42.2828 63.8545 42.3224 63.9124C42.4717 64.1308 42.621 64.3502 42.7845 64.5594H34.8372C28.8958 64.5594 24.0614 59.7209 24.0614 53.7734C24.0614 47.8747 28.6683 43.1368 34.5478 42.9865C34.6998 42.9825 34.849 42.9444 34.9844 42.875C35.1198 42.8057 35.2379 42.7068 35.33 42.5858C35.4221 42.4648 35.4858 42.3246 35.5166 42.1756C35.5473 42.0267 35.5442 41.8727 35.5075 41.7251C35.3675 41.1404 35.2993 40.5408 35.3044 39.9396C35.3044 35.543 38.8764 31.967 43.2669 31.967C45.3459 31.967 47.303 32.752 48.7757 34.179C48.8927 34.2925 49.0354 34.3762 49.1916 34.423C49.3479 34.4697 49.5131 34.4782 49.6733 34.4476C49.8335 34.417 49.9839 34.3483 50.112 34.2473C50.24 34.1462 50.3418 34.0159 50.4088 33.8672C52.1607 29.9804 56.0313 27.4688 60.2685 27.4688C66.2271 27.4688 71.0747 32.3072 71.0747 38.2547C71.0747 39.4084 70.8777 40.5683 70.4897 41.7048C70.4402 41.8487 70.4237 42.0019 70.4415 42.153C70.4592 42.3042 70.5108 42.4494 70.5924 42.5779C70.6739 42.7064 70.7834 42.8148 70.9126 42.8952C71.0418 42.9756 71.1875 43.0259 71.3388 43.0423C73.9793 43.3352 76.419 44.5922 78.1902 46.5724C79.9614 48.5526 80.9396 51.1167 80.9375 53.7734C80.9375 59.7199 76.095 64.5594 70.1424 64.5594Z" fill="#0AA8A8"/>
<path d="M59.5474 57.5216C60.105 57.4627 60.5092 56.963 60.4513 56.4044C60.1943 53.9638 59.0355 51.9153 57.1008 50.4802C56.9936 50.4008 56.8718 50.3433 56.7424 50.3109C56.613 50.2785 56.4785 50.272 56.3466 50.2916C56.2146 50.3112 56.0879 50.3566 55.9735 50.4252C55.8591 50.4938 55.7593 50.5843 55.6799 50.6915C55.6005 50.7986 55.5429 50.9204 55.5106 51.0498C55.4782 51.1792 55.4716 51.3137 55.4913 51.4457C55.5109 51.5776 55.5563 51.7044 55.6249 51.8188C55.6935 51.9332 55.784 52.0329 55.8911 52.1123C57.378 53.2153 58.2332 54.7316 58.4312 56.6187C58.4452 56.7514 58.4851 56.8801 58.5488 56.9974C58.6125 57.1147 58.6987 57.2182 58.8025 57.3022C58.9062 57.3861 59.0255 57.4488 59.1535 57.4866C59.2815 57.5244 59.4157 57.5367 59.5484 57.5226L59.5474 57.5216ZM53.868 48.8887C53.6157 48.8126 53.3594 48.7506 53.1002 48.7029C52.5457 48.6074 52.0277 48.9852 51.9343 49.5357C51.8408 50.0862 52.2095 50.6092 52.759 50.7047C52.7844 50.7087 52.9865 50.7473 53.2983 50.8387C53.4276 50.8809 53.5641 50.8966 53.6996 50.885C53.8351 50.8734 53.9669 50.8346 54.0872 50.7711C54.2075 50.7076 54.3138 50.6205 54.3998 50.5151C54.4857 50.4098 54.5497 50.2882 54.5878 50.1576C54.6259 50.027 54.6374 49.8901 54.6216 49.755C54.6058 49.6199 54.563 49.4894 54.4957 49.3711C54.4285 49.2529 54.3382 49.1493 54.2302 49.0666C54.1222 48.984 53.9987 48.9238 53.867 48.8898L53.868 48.8887ZM52.4654 38.7559C52.1961 38.7559 51.9378 38.8629 51.7473 39.0533C51.5568 39.2438 51.4498 39.5021 51.4498 39.7715V41.9713C51.4498 42.2407 51.5568 42.499 51.7473 42.6895C51.9378 42.8799 52.1961 42.987 52.4654 42.987C52.7348 42.987 52.9931 42.8799 53.1836 42.6895C53.3741 42.499 53.4811 42.2407 53.4811 41.9713V39.7715C53.4811 39.5021 53.3741 39.2438 53.1836 39.0533C52.9931 38.8629 52.7348 38.7559 52.4654 38.7559ZM69.6102 55.9016H67.4104C67.141 55.9016 66.8827 56.0086 66.6922 56.1991C66.5017 56.3896 66.3947 56.6479 66.3947 56.9173C66.3947 57.1866 66.5017 57.445 66.6922 57.6354C66.8827 57.8259 67.141 57.9329 67.4104 57.9329H69.6102C69.8796 57.9329 70.1379 57.8259 70.3284 57.6354C70.5188 57.445 70.6258 57.1866 70.6258 56.9173C70.6258 56.6479 70.5188 56.3896 70.3284 56.1991C70.1379 56.0086 69.8796 55.9016 69.6102 55.9016ZM37.5205 55.9016H35.3207C35.0513 55.9016 34.793 56.0086 34.6025 56.1991C34.4121 56.3896 34.3051 56.6479 34.3051 56.9173C34.3051 57.1866 34.4121 57.445 34.6025 57.6354C34.793 57.8259 35.0513 57.9329 35.3207 57.9329H37.5205C37.7899 57.9329 38.0482 57.8259 38.2387 57.6354C38.4291 57.445 38.5361 57.1866 38.5361 56.9173C38.5361 56.6479 38.4291 56.3896 38.2387 56.1991C38.0482 56.0086 37.7899 55.9016 37.5205 55.9016ZM63.8709 44.0757L62.316 45.6316C62.2217 45.7259 62.1469 45.8379 62.0959 45.9611C62.0448 46.0843 62.0186 46.2163 62.0186 46.3497C62.0186 46.483 62.0448 46.6151 62.0959 46.7383C62.1469 46.8615 62.2217 46.9734 62.316 47.0677C62.4103 47.162 62.5222 47.2368 62.6454 47.2879C62.7686 47.3389 62.9007 47.3652 63.034 47.3652C63.1674 47.3652 63.2994 47.3389 63.4226 47.2879C63.5458 47.2368 63.6578 47.162 63.7521 47.0677L65.307 45.5118C65.4974 45.3214 65.6044 45.0631 65.6044 44.7937C65.6044 44.5244 65.4974 44.2661 65.307 44.0757C65.1166 43.8853 64.8583 43.7783 64.589 43.7783C64.3196 43.7783 64.0614 43.8853 63.8709 44.0757ZM41.06 44.0757C40.8695 43.8853 40.6112 43.7783 40.3419 43.7783C40.0726 43.7783 39.8143 43.8853 39.6239 44.0757C39.4334 44.2661 39.3265 44.5244 39.3265 44.7937C39.3265 45.0631 39.4334 45.3214 39.6239 45.5118L41.1788 47.0677C41.2729 47.1624 41.3848 47.2375 41.508 47.2887C41.6312 47.34 41.7634 47.3664 41.8969 47.3664C42.0303 47.3664 42.1625 47.34 42.2857 47.2887C42.4089 47.2375 42.5208 47.1624 42.6149 47.0677C42.7093 46.9735 42.7842 46.8616 42.8353 46.7384C42.8864 46.6151 42.9127 46.4831 42.9127 46.3497C42.9127 46.2163 42.8864 46.0842 42.8353 45.961C42.7842 45.8378 42.7093 45.7259 42.6149 45.6316L41.06 44.0757Z" fill="#0AA8A8"/>
<circle cx="53.1534" cy="53.3331" r="52.1534" stroke="#0AA8A8" stroke-width="2"/>
</svg>
