<svg width="100" height="101" viewBox="0 0 100 101" fill="none" xmlns="http://www.w3.org/2000/svg">
<g clip-path="url(#clip0_149_330)">
<path d="M9.66882 33.1182H16.1204V36.344H9.66882V33.1182Z" fill="#404C52"/>
<path d="M95.1527 26.6668C97.8201 26.6668 99.9915 24.4954 99.9915 21.8281V5.69906C99.9915 3.03172 97.8201 0.860352 95.1527 0.860352H72.5721C69.9048 0.860352 67.7334 3.03172 67.7334 5.69906V21.8281C67.7334 24.4954 69.9048 26.6668 72.5721 26.6668H77.4108V29.8926H74.185V33.1184H82.2495V49.2474H75.5931C74.3064 47.9914 72.7217 47.0297 70.9481 46.5005C70.9562 46.3374 70.9592 46.1799 70.9592 46.0216C70.9592 38.9067 65.1709 33.1184 58.056 33.1184C53.6417 33.1184 49.5386 35.4148 47.1886 39.0882C45.5344 38.3436 43.7411 37.9581 41.9269 37.9571C36.5741 37.9571 31.7542 41.3309 29.8687 46.2799C28.6433 46.543 27.5013 47.0138 26.4642 47.6345H14.5076V42.7958H20.9592C23.6265 42.7958 25.7979 40.6245 25.7979 37.9571V5.69906C25.7979 3.03172 23.6265 0.860352 20.9592 0.860352H4.83016C2.16283 0.860352 -0.00854492 3.03172 -0.00854492 5.69906V37.9571C-0.00854492 40.6245 2.16283 42.7958 4.83016 42.7958H11.2818V50.8604H23.0338C22.3416 51.8446 21.8121 52.9338 21.4656 54.0862H14.5076V71.8281H8.05597C5.38863 71.8281 3.21726 73.9995 3.21726 76.6668V91.1829H-0.00854492V96.0216C-0.00854492 98.689 2.16283 100.86 4.83016 100.86H30.6366C33.304 100.86 35.4753 98.689 35.4753 96.0216V91.1829H32.2495V76.6668C32.2495 73.9995 30.0781 71.8281 27.4108 71.8281H17.7334V57.312H20.9592C20.9592 63.536 26.0255 68.6023 32.2495 68.6023H67.7334C73.4092 68.6023 78.1078 64.3866 78.8947 58.9249H85.4753V71.8281H74.185V100.86H99.9915V71.8281H88.7011V55.6991H78.8882C78.7205 54.5634 78.3725 53.4829 77.885 52.4733H85.4753V33.1184H93.5398V29.8926H90.314V26.6668H95.1527ZM22.5721 26.6668H3.21726V10.5378H22.5721V26.6668ZM4.83016 4.08616H20.9592C21.8491 4.08616 22.5721 4.80914 22.5721 5.69906V7.31196H3.21726V5.69906C3.21726 4.80914 3.94025 4.08616 4.83016 4.08616ZM3.21726 37.9571V29.8926H22.5721V37.9571C22.5721 38.847 21.8491 39.57 20.9592 39.57H4.83016C3.94025 39.57 3.21726 38.847 3.21726 37.9571ZM32.2495 96.0216C32.2495 96.9116 31.5265 97.6345 30.6366 97.6345H4.83016C3.94025 97.6345 3.21726 96.9116 3.21726 96.0216V94.4087H32.2495V96.0216ZM29.0237 76.6668V91.1829H6.44307V76.6668C6.44307 75.7769 7.16605 75.0539 8.05597 75.0539H27.4108C28.3007 75.0539 29.0237 75.7769 29.0237 76.6668ZM77.4108 97.6345V87.9571H96.7656V97.6345H77.4108ZM96.7656 84.7313H77.4108V75.0539H96.7656V84.7313ZM67.7334 65.3765H32.2495C27.8029 65.3765 24.185 61.7585 24.185 57.312C24.185 53.2347 27.2368 49.7956 31.2818 49.312L32.3402 49.1845L32.6386 48.1606C33.8318 44.0519 37.6527 41.1829 41.9269 41.1829C43.7076 41.1829 45.456 41.6829 46.9884 42.6265L48.5281 43.5763L49.2961 41.9358C50.8838 38.5378 54.3221 36.3442 58.056 36.3442C63.3933 36.3442 67.7334 40.6843 67.7334 46.0216C67.7334 46.4666 67.6931 46.9408 67.6058 47.5132L67.3624 49.1089L68.9572 49.3507C72.8572 49.946 75.7979 53.3688 75.7979 57.312C75.7979 61.7585 72.18 65.3765 67.7334 65.3765ZM72.5721 4.08616H95.1527C96.0427 4.08616 96.7656 4.80914 96.7656 5.69906V16.9894H70.9592V5.69906C70.9592 4.80914 71.6822 4.08616 72.5721 4.08616ZM70.9592 21.8281V20.2152H96.7656V21.8281C96.7656 22.718 96.0427 23.441 95.1527 23.441H72.5721C71.6822 23.441 70.9592 22.718 70.9592 21.8281ZM87.0882 29.8926H80.6366V26.6668H87.0882V29.8926Z" fill="#404C52"/>
<path d="M80.6366 78.2793H83.8624V81.5051H80.6366V78.2793ZM90.314 91.1825H93.5398V94.4083H90.314V91.1825ZM87.0882 78.2793H93.5398V81.5051H87.0882V78.2793ZM80.6366 91.1825H87.0882V94.4083H80.6366V91.1825Z" fill="#404C52"/>
</g>
<defs>
<clipPath id="clip0_149_330">
<rect width="100" height="100" fill="white" transform="translate(-0.00854492 0.860352)"/>
</clipPath>
</defs>
</svg>
