<svg width="100" height="101" viewBox="0 0 100 101" fill="none" xmlns="http://www.w3.org/2000/svg">
<g clip-path="url(#clip0_149_312)">
<path d="M89.2611 65.7141C84.3535 65.7141 80.2072 69.0232 78.9283 73.5266H68.558V62.09H79.1465C90.647 62.09 100.003 52.7338 100.003 41.2332C100.003 32.0123 93.8877 23.9119 85.2056 21.2736C82.5812 10.765 73.0953 3.22812 62.1092 3.22812C57.8504 3.22812 53.7707 4.32637 50.1703 6.42461C46.3572 2.9375 41.3574 0.978516 36.1041 0.978516C24.8359 0.978516 15.6261 9.96113 15.2586 21.1412C6.34041 23.634 0.0032959 31.7994 0.0032959 41.2332C0.0032959 52.7338 9.35955 62.09 20.8601 62.09H31.4486V73.5266H21.0783C19.7996 69.0232 15.6531 65.7141 10.7455 65.7141C4.82224 65.7141 0.0032959 70.533 0.0032959 76.4562C0.0032959 82.3795 4.82224 87.1984 10.7455 87.1984C15.6531 87.1984 19.7994 83.8893 21.0783 79.3859H34.3783C35.9963 79.3859 37.308 78.0742 37.308 76.4562V62.09H47.0736V79.7953C42.5703 81.074 39.2611 85.2205 39.2611 90.1281C39.2611 96.0514 44.0801 100.87 50.0033 100.87C55.9265 100.87 60.7455 96.0514 60.7455 90.1281C60.7455 85.2205 57.4363 81.0742 52.933 79.7953V62.09H62.6986V76.4562C62.6986 78.0742 64.0103 79.3859 65.6283 79.3859H78.9283C80.207 83.8893 84.3535 87.1984 89.2611 87.1984C95.1843 87.1984 100.003 82.3795 100.003 76.4562C100.003 70.533 95.1843 65.7141 89.2611 65.7141ZM10.7455 81.3391C8.0531 81.3391 5.86267 79.1486 5.86267 76.4562C5.86267 73.7639 8.0531 71.5734 10.7455 71.5734C13.4379 71.5734 15.6283 73.7639 15.6283 76.4562C15.6283 79.1486 13.4379 81.3391 10.7455 81.3391ZM54.8861 90.1281C54.8861 92.8205 52.6957 95.0109 50.0033 95.0109C47.3109 95.0109 45.1205 92.8205 45.1205 90.1281C45.1205 87.4357 47.3109 85.2453 50.0033 85.2453C52.6957 85.2453 54.8861 87.4357 54.8861 90.1281ZM20.8601 56.2307C12.5906 56.2307 5.86267 49.5029 5.86267 41.2332C5.86267 33.842 11.3719 27.4625 18.6771 26.3941C20.2187 26.1688 21.314 24.7762 21.1703 23.225C21.1277 22.7629 21.1064 22.2992 21.1064 21.8352C21.1064 13.5658 27.8344 6.83809 36.1039 6.83809C40.516 6.83809 44.6767 8.75605 47.5189 12.1002C48.5168 13.2742 50.2533 13.4746 51.4926 12.559C54.5652 10.2879 58.2363 9.0875 62.109 9.0875C71.0207 9.0875 78.4318 15.6264 79.8172 24.1324C79.9129 24.7198 80.1852 25.2642 80.5979 25.693C81.0106 26.1218 81.5442 26.4147 82.1275 26.5328C89.0902 27.9424 94.1437 34.1246 94.1437 41.2332C94.1437 49.5029 87.4158 56.2307 79.1463 56.2307H20.8601ZM89.2611 81.3391C86.5687 81.3391 84.3783 79.1486 84.3783 76.4562C84.3783 73.7639 86.5687 71.5734 89.2611 71.5734C91.9535 71.5734 94.1439 73.7639 94.1439 76.4562C94.1439 79.1486 91.9535 81.3391 89.2611 81.3391Z" fill="#404C52"/>
</g>
<defs>
<clipPath id="clip0_149_312">
<rect width="100" height="100" fill="white" transform="translate(0.0032959 0.924805)"/>
</clipPath>
</defs>
</svg>
