<svg width="100" height="101" viewBox="0 0 100 101" fill="none" xmlns="http://www.w3.org/2000/svg">
<g clip-path="url(#clip0_149_246)">
<rect width="100" height="100" transform="translate(-0.00854492 0.734375)" fill="white"/>
<path d="M99.9915 69.4844C99.9915 66.0385 97.1874 63.2344 93.7415 63.2344H31.2415C27.7956 63.2344 24.9915 66.0385 24.9915 69.4844V77.8178C24.9915 79.4219 25.6165 80.8762 26.6165 81.9844C25.6165 83.0928 24.9915 84.5469 24.9915 86.151V94.4844C24.9915 97.9303 27.7956 100.734 31.2415 100.734H93.7415C97.1874 100.734 99.9915 97.9303 99.9915 94.4844V86.151C99.9915 84.5469 99.3665 83.0926 98.3665 81.9844C99.3665 80.876 99.9915 79.4219 99.9915 77.8178V69.4844ZM95.8249 94.4844C95.8249 95.6344 94.8915 96.5678 93.7415 96.5678H31.2415C30.0915 96.5678 29.1581 95.6344 29.1581 94.4844V86.151C29.1581 85.001 30.0915 84.0676 31.2415 84.0676H93.7415C94.8915 84.0676 95.8249 85.001 95.8249 86.151V94.4844ZM95.8249 77.8178C95.8249 78.9678 94.8915 79.9012 93.7415 79.9012H31.2415C30.0915 79.9012 29.1581 78.9678 29.1581 77.8178V69.4844C29.1581 68.3344 30.0915 67.401 31.2415 67.401H93.7415C94.8915 67.401 95.8249 68.3344 95.8249 69.4844V77.8178Z" fill="#404C52"/>
<path d="M19.4456 93.5969C10.0165 90.7885 4.15806 86.3385 4.15806 81.9844V69.4635C7.25395 72.3635 11.9622 74.8635 18.1415 76.7176C18.3415 76.776 18.5456 76.8051 18.7415 76.8051C19.6374 76.8051 20.4665 76.226 20.7374 75.3217C21.0708 74.2176 20.4458 73.0592 19.3415 72.7258C9.97485 69.9174 4.15806 65.4842 4.15806 61.1508V48.5758C10.8372 54.8342 24.929 59.0674 41.6581 59.0674C58.3872 59.0674 72.479 54.834 79.1581 48.5758V56.9844C79.1581 58.1344 80.0915 59.0678 81.2415 59.0678C82.3915 59.0678 83.3249 58.1344 83.3249 56.9844V19.4844C83.3249 8.97188 65.0208 0.734375 41.6583 0.734375C18.2958 0.734375 -0.00854492 8.97188 -0.00854492 19.4844V81.9844C-0.00854492 88.4469 6.64985 94.1303 18.2581 97.5885C18.4581 97.6469 18.6581 97.676 18.854 97.676C19.754 97.676 20.579 97.0926 20.8456 96.1885C21.179 95.0844 20.5499 93.926 19.4456 93.5969ZM41.6581 4.90098C63.7581 4.90098 79.1581 12.5885 79.1581 19.4844C79.1581 26.3803 63.7581 34.0678 41.6581 34.0678C19.5581 34.0678 4.15806 26.3803 4.15806 19.4844C4.15806 12.5885 19.5581 4.90098 41.6581 4.90098ZM4.15806 27.7428C10.8374 34.001 24.929 38.2344 41.6581 38.2344C58.3872 38.2344 72.479 34.001 79.1581 27.7428V40.3178C79.1581 47.2137 63.7581 54.9012 41.6581 54.9012C19.5581 54.9012 4.15806 47.2137 4.15806 40.3178V27.7428ZM89.5749 88.2344H72.9083C71.7583 88.2344 70.8249 89.1678 70.8249 90.3178C70.8249 91.4678 71.7583 92.4012 72.9083 92.4012H89.5749C90.7249 92.4012 91.6583 91.4678 91.6583 90.3178C91.6583 89.1678 90.7249 88.2344 89.5749 88.2344Z" fill="#404C52"/>
<path d="M35.4081 71.5674C34.2581 71.5674 33.3247 72.5008 33.3247 73.6508C33.3247 74.8008 34.2581 75.7342 35.4081 75.7342C36.5581 75.7342 37.4915 74.8006 37.4915 73.6506C37.4915 72.5006 36.5581 71.5674 35.4081 71.5674ZM35.4081 88.234C34.2581 88.234 33.3247 89.1674 33.3247 90.3174C33.3247 91.4674 34.2581 92.4008 35.4081 92.4008C36.5581 92.4008 37.4915 91.4674 37.4915 90.3174C37.4915 89.1674 36.5581 88.234 35.4081 88.234ZM89.5749 71.5674H72.9083C71.7583 71.5674 70.8249 72.5008 70.8249 73.6508C70.8249 74.8008 71.7583 75.7342 72.9083 75.7342H89.5749C90.7249 75.7342 91.6583 74.8008 91.6583 73.6508C91.6581 72.5006 90.7249 71.5674 89.5749 71.5674Z" fill="white"/>
</g>
<defs>
<clipPath id="clip0_149_246">
<rect width="100" height="100" fill="white" transform="translate(-0.00854492 0.734375)"/>
</clipPath>
</defs>
</svg>
