<svg width="100" height="101" viewBox="0 0 100 101" fill="none" xmlns="http://www.w3.org/2000/svg">
<g clip-path="url(#clip0_149_320)">
<rect width="100" height="100" transform="translate(-0.00878906 0.782227)" fill="white"/>
<path d="M49.9913 25.7822C29.5807 25.7822 8.9198 21.4888 8.9198 13.2822C8.9198 5.07562 29.5805 0.782227 49.9913 0.782227C70.4022 0.782227 91.0629 5.07562 91.0629 13.2822C91.0629 21.4888 70.402 25.7822 49.9913 25.7822ZM49.9913 4.35365C27.0997 4.35365 12.4914 9.64104 12.4914 13.2822C12.4914 16.9234 27.0997 22.2108 49.9913 22.2108C72.8829 22.2108 87.4913 16.9234 87.4913 13.2822C87.4913 9.64104 72.8829 4.35365 49.9913 4.35365ZM49.9913 100.782C29.5807 100.782 8.9198 96.4888 8.9198 88.2822V63.2823C8.9198 62.2961 9.71934 61.4966 10.7055 61.4966C11.6917 61.4966 12.4912 62.2961 12.4912 63.2823V88.2822C12.4912 91.9234 27.0996 97.2108 49.9912 97.2108C72.8827 97.2108 87.4911 91.9234 87.4911 88.2822V63.2823C87.4911 62.2961 88.2906 61.4966 89.2768 61.4966C90.263 61.4966 91.0625 62.2961 91.0625 63.2823V88.2822C91.0627 96.4888 70.402 100.782 49.9913 100.782Z" fill="#404C52"/>
<path d="M49.9913 75.7819C29.5807 75.7819 8.9198 71.4885 8.9198 63.2819V38.2818C8.9198 37.2956 9.71934 36.4961 10.7055 36.4961C11.6917 36.4961 12.4912 37.2956 12.4912 38.2818V63.2818C12.4912 66.9229 27.0996 72.2103 49.9912 72.2103C72.8827 72.2103 87.4911 66.9229 87.4911 63.2818V38.2818C87.4911 37.2956 88.2906 36.4961 89.2768 36.4961C90.263 36.4961 91.0625 37.2956 91.0625 38.2818V63.2818C91.0627 71.4885 70.402 75.7819 49.9913 75.7819Z" fill="#404C52"/>
<path d="M49.9913 50.7819C29.5807 50.7819 8.9198 46.4885 8.9198 38.2819V13.2818C8.9198 12.2956 9.71934 11.4961 10.7055 11.4961C11.6917 11.4961 12.4912 12.2956 12.4912 13.2818V38.2818C12.4912 41.9231 27.0996 47.2103 49.9912 47.2103C72.8827 47.2103 87.4911 41.9229 87.4911 38.2818V13.2818C87.4911 12.2956 88.2906 11.4961 89.2768 11.4961C90.263 11.4961 91.0625 12.2956 91.0625 13.2818V38.2818C91.0627 46.4885 70.402 50.7819 49.9913 50.7819Z" fill="#404C52"/>
<path d="M82.1341 32.9249C83.1203 32.9249 83.9198 32.1254 83.9198 31.1392C83.9198 30.153 83.1203 29.3535 82.1341 29.3535C81.1479 29.3535 80.3484 30.153 80.3484 31.1392C80.3484 32.1254 81.1479 32.9249 82.1341 32.9249Z" fill="#404C52"/>
<path d="M82.1341 57.9249C83.1203 57.9249 83.9198 57.1254 83.9198 56.1392C83.9198 55.153 83.1203 54.3535 82.1341 54.3535C81.1479 54.3535 80.3484 55.153 80.3484 56.1392C80.3484 57.1254 81.1479 57.9249 82.1341 57.9249Z" fill="#404C52"/>
<path d="M82.1341 82.9249C83.1203 82.9249 83.9198 82.1254 83.9198 81.1392C83.9198 80.153 83.1203 79.3535 82.1341 79.3535C81.1479 79.3535 80.3484 80.153 80.3484 81.1392C80.3484 82.1254 81.1479 82.9249 82.1341 82.9249Z" fill="#404C52"/>
</g>
<defs>
<clipPath id="clip0_149_320">
<rect width="100" height="100" fill="white" transform="translate(-0.00878906 0.782227)"/>
</clipPath>
</defs>
</svg>
