<svg width="107" height="107" viewBox="0 0 107 107" fill="none" xmlns="http://www.w3.org/2000/svg">
<circle cx="53.5001" cy="53.6749" r="52.1534" stroke="#0AA8A8" stroke-width="2"/>
<g clip-path="url(#clip0_313_167)">
<path d="M53.5 37.4248C40.233 37.4248 26.8035 34.6341 26.8035 29.2998C26.8035 23.9655 40.2329 21.1748 53.5 21.1748C66.767 21.1748 80.1965 23.9655 80.1965 29.2998C80.1965 34.6341 66.7669 37.4248 53.5 37.4248ZM53.5 23.4962C38.6204 23.4962 29.125 26.933 29.125 29.2998C29.125 31.6665 38.6204 35.1034 53.5 35.1034C68.3795 35.1034 77.8749 31.6665 77.8749 29.2998C77.8749 26.933 68.3795 23.4962 53.5 23.4962ZM53.5 86.1748C40.233 86.1748 26.8035 83.3841 26.8035 78.0498V61.7999C26.8035 61.1588 27.3232 60.6391 27.9642 60.6391C28.6052 60.6391 29.1249 61.1588 29.1249 61.7999V78.0498C29.1249 80.4166 38.6203 83.8534 53.4998 83.8534C68.3794 83.8534 77.8748 80.4166 77.8748 78.0498V61.7999C77.8748 61.1588 78.3945 60.6391 79.0355 60.6391C79.6765 60.6391 80.1962 61.1588 80.1962 61.7999V78.0498C80.1964 83.3841 66.7669 86.1748 53.5 86.1748Z" fill="#0AA8A8"/>
<path d="M53.5 69.9245C40.233 69.9245 26.8035 67.1338 26.8035 61.7995V45.5494C26.8035 44.9084 27.3232 44.3887 27.9642 44.3887C28.6052 44.3887 29.1249 44.9084 29.1249 45.5494V61.7994C29.1249 64.1661 38.6203 67.6029 53.4998 67.6029C68.3794 67.6029 77.8748 64.1661 77.8748 61.7994V45.5494C77.8748 44.9084 78.3945 44.3887 79.0355 44.3887C79.6765 44.3887 80.1962 44.9084 80.1962 45.5494V61.7994C80.1963 67.1338 66.7669 69.9245 53.5 69.9245Z" fill="#0AA8A8"/>
<path d="M53.5 53.6745C40.233 53.6745 26.8035 50.8838 26.8035 45.5495V29.2994C26.8035 28.6584 27.3232 28.1387 27.9642 28.1387C28.6052 28.1387 29.1249 28.6584 29.1249 29.2994V45.5494C29.1249 47.9162 38.6203 51.3529 53.4998 51.3529C68.3794 51.3529 77.8748 47.9161 77.8748 45.5494V29.2994C77.8748 28.6584 78.3945 28.1387 79.0355 28.1387C79.6765 28.1387 80.1962 28.6584 80.1962 29.2994V45.5494C80.1963 50.8838 66.7669 53.6745 53.5 53.6745Z" fill="#0AA8A8"/>
<path d="M74.3929 42.0675C75.0339 42.0675 75.5536 41.5478 75.5536 40.9068C75.5536 40.2658 75.0339 39.7461 74.3929 39.7461C73.7518 39.7461 73.2322 40.2658 73.2322 40.9068C73.2322 41.5478 73.7518 42.0675 74.3929 42.0675Z" fill="#0AA8A8"/>
<path d="M74.3929 58.3175C75.0339 58.3175 75.5536 57.7979 75.5536 57.1568C75.5536 56.5158 75.0339 55.9961 74.3929 55.9961C73.7518 55.9961 73.2322 56.5158 73.2322 57.1568C73.2322 57.7979 73.7518 58.3175 74.3929 58.3175Z" fill="#0AA8A8"/>
<path d="M74.3929 74.5675C75.0339 74.5675 75.5536 74.0479 75.5536 73.4068C75.5536 72.7658 75.0339 72.2461 74.3929 72.2461C73.7518 72.2461 73.2322 72.7658 73.2322 73.4068C73.2322 74.0479 73.7518 74.5675 74.3929 74.5675Z" fill="#0AA8A8"/>
</g>
<defs>
<clipPath id="clip0_313_167">
<rect width="65" height="65" fill="white" transform="translate(21 21.1748)"/>
</clipPath>
</defs>
</svg>
