<svg width="100" height="89" viewBox="0 0 100 89" fill="none" xmlns="http://www.w3.org/2000/svg">
<path d="M98.7139 52.1503L92.5727 47.9562L94.2782 46.5937C95.7887 45.387 95.7366 43.0648 94.1647 41.9298L37.8311 1.24717C35.3008 -0.58037 31.7875 -0.10537 29.8329 2.32764L11.319 25.3718C9.21353 27.9931 9.74497 31.8554 12.4817 33.8099L26.5559 43.8606L20.9055 51.8884C19.9704 53.2171 20.2959 55.054 21.6299 55.981L23.644 57.3798C20.3424 60.5644 15.9343 62.3442 11.3471 62.345H5.85083V55.9974C5.85083 54.3794 4.53911 53.0677 2.92114 53.0677C1.30317 53.0677 -0.00854492 54.3794 -0.00854492 55.9974V85.8802C-0.00854492 87.4981 1.30317 88.8099 2.92114 88.8099C4.53911 88.8099 5.85083 87.4981 5.85083 85.8802V79.9231H9.82192C20.3379 79.9231 30.6192 75.5005 37.9217 67.2962L40.852 69.3314C42.1895 70.2603 44.0284 69.9194 44.9446 68.5743L50.2522 60.7827L62.32 69.4007C62.8388 69.7712 63.4643 69.9623 64.1016 69.9451C64.7389 69.9279 65.3531 69.7033 65.8512 69.3054L70.2237 65.812L81.5928 73.995C82.8557 74.904 84.6079 74.6669 85.5842 73.4569L99.3419 56.4097C100.415 55.0802 100.126 53.1146 98.7139 52.1503ZM9.82192 74.0636H5.85083V68.2042H11.3469C14.5662 68.2035 17.7512 67.5436 20.7057 66.2651C23.6602 64.9865 26.3216 63.1165 28.5258 60.7702L33.068 63.9249C27.1088 70.3196 18.6284 74.0636 9.82192 74.0636ZM41.7661 62.8321L27.3936 52.8501L31.3243 47.2657L45.4827 57.3767L41.7661 62.8321ZM63.9233 63.3456L15.8868 29.0415L34.4006 5.99736L87.6084 44.4226L63.9233 63.3456ZM82.7653 67.6194L74.9772 62.0138L87.7846 51.7813L92.7889 55.1991L82.7653 67.6194Z" fill="#404C52"/>
<path d="M73.4291 44.4736C75.0471 44.4736 76.3588 43.162 76.3588 41.5439C76.3588 39.9259 75.0471 38.6143 73.4291 38.6143C71.8111 38.6143 70.4994 39.9259 70.4994 41.5439C70.4994 43.162 71.8111 44.4736 73.4291 44.4736Z" fill="#404C52"/>
</svg>
