<svg width="68" height="85" viewBox="0 0 68 85" fill="none" xmlns="http://www.w3.org/2000/svg">
<path fill-rule="evenodd" clip-rule="evenodd" d="M17.5997 31.9644H50.3831C50.4039 31.3936 50.4206 30.7394 50.4206 30.0269C50.4206 27.2602 50.1914 23.6394 49.3164 20.0686C48.4331 16.4852 46.9497 13.1644 44.5914 10.7644C42.3039 8.43939 38.9998 6.76856 33.9914 6.76856C28.9831 6.76856 25.6789 8.43522 23.3914 10.7644C21.0331 13.1644 19.5497 16.4894 18.6664 20.0727C17.7914 23.6394 17.5623 27.2602 17.5623 30.0269C17.5623 30.7394 17.5789 31.3936 17.6039 31.9644H17.5997ZM56.0998 31.9644C56.1206 31.3811 56.1331 30.7269 56.1331 30.0269C56.1331 26.9769 55.8831 22.8477 54.8581 18.6602C53.8331 14.4936 51.9831 10.0644 48.6289 6.65189C45.2039 3.16439 40.4123 0.956055 33.9914 0.956055C27.5706 0.956055 22.7831 3.16439 19.3539 6.65189C15.9998 10.0686 14.1456 14.4936 13.1247 18.6602C12.0956 22.8477 11.8497 26.9769 11.8497 30.0269C11.8497 30.7269 11.8622 31.3769 11.8831 31.9644H11.1331C5.34975 31.9644 0.658081 36.7352 0.658081 42.6227V73.6311C0.658081 79.5186 5.34975 84.2894 11.1331 84.2894H56.8498C62.6331 84.2894 67.3248 79.5186 67.3248 73.6311V42.6227C67.3248 36.7352 62.6331 31.9644 56.8498 31.9644H56.0998ZM11.1331 37.7769C8.50808 37.7769 6.37058 39.9436 6.37058 42.6227V73.6311C6.37058 76.3061 8.50391 78.4769 11.1331 78.4769H56.8498C59.4748 78.4769 61.6123 76.3102 61.6123 73.6311V42.6227C61.6123 39.9477 59.4789 37.7769 56.8498 37.7769H11.1331Z" fill="#404C52"/>
</svg>
