<svg width="100" height="101" viewBox="0 0 100 101" fill="none" xmlns="http://www.w3.org/2000/svg">
<path d="M-0.00854492 97.1452H99.9915V100.479H-0.00854492V97.1452ZM6.65812 93.8118H23.3248C23.7668 93.8118 24.1907 93.6363 24.5033 93.3237C24.8159 93.0111 24.9915 92.5872 24.9915 92.1452V62.1452C24.9915 61.7032 24.8159 61.2792 24.5033 60.9667C24.1907 60.6541 23.7668 60.4785 23.3248 60.4785H6.65812C6.21609 60.4785 5.79217 60.6541 5.47961 60.9667C5.16705 61.2792 4.99146 61.7032 4.99146 62.1452V92.1452C4.99146 92.5872 5.16705 93.0111 5.47961 93.3237C5.79217 93.6363 6.21609 93.8118 6.65812 93.8118ZM8.32479 63.8118H21.6581V90.4785H8.32479V63.8118ZM53.3248 93.8118H69.9915C70.4335 93.8118 70.8574 93.6363 71.17 93.3237C71.4825 93.0111 71.6581 92.5872 71.6581 92.1452V42.1452C71.6581 41.7032 71.4825 41.2792 71.17 40.9667C70.8574 40.6541 70.4335 40.4785 69.9915 40.4785H53.3248C52.8828 40.4785 52.4588 40.6541 52.1463 40.9667C51.8337 41.2792 51.6581 41.7032 51.6581 42.1452V92.1452C51.6581 92.5872 51.8337 93.0111 52.1463 93.3237C52.4588 93.6363 52.8828 93.8118 53.3248 93.8118ZM54.9915 43.8118H68.3248V90.4785H54.9915V43.8118ZM29.9915 93.8118H46.6581C47.1001 93.8118 47.5241 93.6363 47.8366 93.3237C48.1492 93.0111 48.3248 92.5872 48.3248 92.1452V22.1452C48.3248 21.7032 48.1492 21.2792 47.8366 20.9667C47.5241 20.6541 47.1001 20.4785 46.6581 20.4785H29.9915C29.5494 20.4785 29.1255 20.6541 28.8129 20.9667C28.5004 21.2792 28.3248 21.7032 28.3248 22.1452V92.1452C28.3248 92.5872 28.5004 93.0111 28.8129 93.3237C29.1255 93.6363 29.5494 93.8118 29.9915 93.8118ZM31.6581 23.8118H44.9915V90.4785H31.6581V23.8118ZM76.6581 93.8118H93.3248C93.7668 93.8118 94.1907 93.6363 94.5033 93.3237C94.8159 93.0111 94.9915 92.5872 94.9915 92.1452V2.14518C94.9915 1.70315 94.8159 1.27923 94.5033 0.966671C94.1907 0.65411 93.7668 0.478516 93.3248 0.478516L76.6581 0.478516C76.2161 0.478516 75.7922 0.65411 75.4796 0.966671C75.167 1.27923 74.9915 1.70315 74.9915 2.14518V92.1452C74.9915 92.5872 75.167 93.0111 75.4796 93.3237C75.7922 93.6363 76.2161 93.8118 76.6581 93.8118ZM78.3248 3.81185H91.6581V90.4785H78.3248V3.81185Z" fill="#404C52"/>
</svg>
