<svg width="246" height="180" viewBox="0 0 246 180" fill="none" xmlns="http://www.w3.org/2000/svg">
<g clip-path="url(#clip0_445_547)">
<path d="M243.362 83.3733C239.651 77.6322 231.987 75.9911 226.246 79.7027C226.21 79.7282 226.17 79.7487 226.134 79.7742L124.179 147.298C120.303 146.95 116.428 147.993 113.248 150.237C105.876 155.457 104.128 165.667 109.348 173.044C111.546 176.152 114.762 178.391 118.432 179.383C119.838 179.761 121.285 179.955 122.742 179.955C125.769 179.955 128.734 179.102 131.305 177.502C134.618 175.446 137.092 172.277 138.283 168.565L239.871 100.367C245.448 96.5836 247.002 89.0429 243.367 83.3682L243.362 83.3733ZM235.31 93.5827L132.445 162.64C131.551 163.238 130.932 164.169 130.717 165.222C129.817 169.649 125.503 172.507 121.075 171.612C120.902 171.576 120.733 171.535 120.559 171.489C116.617 170.38 114.082 166.551 114.598 162.487C115.15 158.443 118.596 155.427 122.676 155.406C123.233 155.406 123.785 155.462 124.327 155.575C125.39 155.789 126.494 155.575 127.399 154.977L230.648 86.5941C232.58 85.316 235.188 85.8426 236.466 87.775C236.476 87.7853 236.481 87.8006 236.491 87.8108C237.723 89.7382 237.197 92.2943 235.305 93.5775L235.31 93.5827ZM151.305 167.855C149.142 167.21 146.862 168.442 146.218 170.605C145.86 171.806 145.41 172.977 144.873 174.107C143.876 176.137 144.715 178.585 146.744 179.582C148.774 180.579 151.223 179.741 152.22 177.711C152.235 177.68 152.25 177.65 152.266 177.619C152.981 176.106 153.585 174.542 154.06 172.941C154.704 170.779 153.472 168.499 151.305 167.855Z" fill="#189292"/>
<path d="M122.696 139.057C124.956 139.057 126.786 137.227 126.786 134.967C126.786 132.707 124.956 130.877 122.696 130.877C104.634 130.898 89.9975 145.534 89.977 163.596C89.9668 168.448 91.0404 173.238 93.1262 177.619C94.0771 179.669 96.5054 180.564 98.5555 179.613C100.606 178.662 101.5 176.234 100.549 174.184C100.539 174.158 100.524 174.133 100.514 174.107C98.9491 170.825 98.1465 167.231 98.1516 163.591C98.167 150.043 109.143 139.067 122.691 139.052L122.696 139.057ZM165.006 60.6594C162.889 59.867 160.532 60.9405 159.74 63.0519C158.947 65.1684 160.021 67.5252 162.132 68.3176C162.148 68.3227 162.168 68.3279 162.184 68.3381C173.589 72.5302 184.253 78.5167 193.773 86.0728C195.541 87.4735 198.113 87.177 199.519 85.4081C200.925 83.6393 200.623 81.0678 198.854 79.6619C188.655 71.5691 177.229 65.1531 165.006 60.6645V60.6594ZM226.911 119.042C224.891 120.054 224.079 122.513 225.091 124.533C232.493 139.215 236.604 155.34 237.141 171.776H208.486C208.01 161.342 205.623 151.081 201.431 141.511C200.526 139.44 198.113 138.495 196.048 139.399C193.977 140.304 193.031 142.717 193.936 144.783C198.22 154.583 200.424 165.166 200.398 175.866C200.398 178.125 202.228 179.956 204.488 179.956H241.297C243.557 179.956 245.387 178.125 245.387 175.866C245.443 156.766 240.99 137.922 232.396 120.862C231.384 118.843 228.925 118.03 226.906 119.042H226.911Z" fill="#189292"/>
<path d="M165.639 101.471C137.895 85.4545 103.535 86.2265 76.5316 103.47C76.5265 103.465 76.5162 103.455 76.5111 103.445L55.8829 82.8217C64.2927 76.7789 73.4846 71.9069 83.2083 68.3385C85.3299 67.5716 86.4342 65.2302 85.6724 63.1034C84.9056 60.9818 82.5641 59.8776 80.4374 60.6444C80.4221 60.6495 80.4016 60.6546 80.3863 60.6597C32.0901 78.4149 0 124.41 0 175.866C0 178.126 1.83021 179.956 4.08986 179.956H40.8986C43.1583 179.956 44.9885 178.126 44.9885 175.866C44.9885 133.02 79.8495 98.1587 122.696 98.1587C136.336 98.1536 149.735 101.737 161.544 108.552C163.503 109.682 166.002 109.012 167.132 107.059C168.267 105.106 167.598 102.601 165.639 101.471ZM36.9059 171.776H8.2513C8.99259 149.44 16.3032 127.826 29.2681 109.626C35.0041 101.538 41.7575 94.2273 49.3647 87.8727L69.768 108.271C50.0957 123.649 38.0971 146.833 36.9059 171.776ZM212.673 0.00195312C194.601 0.00195312 179.954 14.6488 179.954 32.7209C179.974 50.7827 194.611 65.4193 212.673 65.4398C230.74 65.4398 245.392 50.7878 245.392 32.7209C245.392 14.6539 230.74 0.00195312 212.673 0.00195312ZM212.673 57.26C199.12 57.26 188.134 46.2737 188.134 32.7209C188.149 19.1732 199.125 8.19702 212.673 8.18168C226.226 8.18168 237.212 19.1681 237.212 32.7209C237.212 46.2737 226.226 57.26 212.673 57.26Z" fill="#189292"/>
<path d="M110.426 28.6309C108.167 28.6309 106.337 26.8007 106.337 24.541C106.337 22.2814 108.167 20.4512 110.426 20.4512H114.516C116.776 20.4512 118.606 22.2814 118.606 24.541C118.606 26.8007 116.776 28.6309 114.516 28.6309H110.426Z" fill="#189292"/>
<path d="M134.965 40.8985C134.965 43.1581 133.135 44.9883 130.876 44.9883H114.516C112.256 44.9883 110.426 43.1581 110.426 40.8985C110.426 38.6388 112.256 36.8086 114.516 36.8086H130.876C133.135 36.8086 134.965 38.6388 134.965 40.8985Z" fill="#189292"/>
<path d="M139.055 24.541C139.055 26.8007 137.225 28.6309 134.965 28.6309H130.876C128.616 28.6309 126.786 26.8007 126.786 24.541C126.786 22.2814 128.616 20.4512 130.876 20.4512H134.965C137.225 20.4512 139.055 22.2814 139.055 24.541Z" fill="#189292"/>
<path d="M122.696 0.00195312C104.634 0.0224024 89.9974 14.659 89.9769 32.7209C89.9769 50.7878 104.624 65.4398 122.696 65.4398C140.768 65.4398 155.415 50.7878 155.415 32.7209C155.415 14.6539 140.763 0.00195312 122.696 0.00195312ZM122.696 57.26C109.143 57.26 98.1567 46.2737 98.1567 32.7209C98.1567 19.1681 109.143 8.18168 122.696 8.18168C136.244 8.19702 147.22 19.1732 147.235 32.7209C147.235 46.2737 136.249 57.26 122.696 57.26Z" fill="#189292"/>
<path d="M110.426 28.6309C108.167 28.6309 106.337 26.8007 106.337 24.541C106.337 22.2814 108.167 20.4512 110.426 20.4512H114.516C116.776 20.4512 118.606 22.2814 118.606 24.541C118.606 26.8007 116.776 28.6309 114.516 28.6309H110.426Z" fill="#189292"/>
<path d="M134.965 40.8985C134.965 43.1581 133.135 44.9883 130.876 44.9883H114.516C112.256 44.9883 110.426 43.1581 110.426 40.8985C110.426 38.6388 112.256 36.8086 114.516 36.8086H130.876C133.135 36.8086 134.965 38.6388 134.965 40.8985Z" fill="#189292"/>
<path d="M139.055 24.541C139.055 26.8007 137.225 28.6309 134.965 28.6309H130.876C128.616 28.6309 126.786 26.8007 126.786 24.541C126.786 22.2814 128.616 20.4512 130.876 20.4512H134.965C137.225 20.4512 139.055 22.2814 139.055 24.541Z" fill="#189292"/>
<path d="M20.4492 32.7207C18.1896 32.7207 16.3594 30.8905 16.3594 28.6309C16.3594 26.3712 18.1896 24.541 20.4492 24.541H24.5391C26.7988 24.541 28.629 26.3712 28.629 28.6309C28.629 30.8905 26.7988 32.7207 24.5391 32.7207H20.4492Z" fill="#189292"/>
<path d="M44.9885 49.0782C44.9885 51.3378 43.1583 53.168 40.8987 53.168C38.639 53.168 36.8088 51.3378 36.8088 49.0782C36.8088 46.8185 34.9786 44.9883 32.7189 44.9883C30.4593 44.9883 28.6291 46.8185 28.6291 49.0782C28.6291 51.3378 26.7989 53.168 24.5392 53.168C22.2796 53.168 20.4493 51.3378 20.4493 49.0782C20.4493 42.2992 25.94 36.8086 32.7189 36.8086C39.4979 36.8086 44.9885 42.2992 44.9885 49.0782Z" fill="#189292"/>
<path d="M49.0783 28.6309C49.0783 30.8905 47.2481 32.7207 44.9884 32.7207H40.8986C38.6389 32.7207 36.8087 30.8905 36.8087 28.6309C36.8087 26.3712 38.6389 24.541 40.8986 24.541H44.9884C47.2481 24.541 49.0783 26.3712 49.0783 28.6309Z" fill="#189292"/>
<path d="M32.7189 4.0918C14.6468 4.0918 0 18.7386 0 36.8107C0.0204493 54.8726 14.657 69.5092 32.7189 69.5296C50.7859 69.5296 65.4378 54.8777 65.4378 36.8107C65.4378 18.7437 50.7859 4.0918 32.7189 4.0918ZM32.7189 61.3499C19.1661 61.3499 8.17973 50.3635 8.17973 36.8107C8.19506 23.263 19.1712 12.2869 32.7189 12.2715C46.2717 12.2715 57.2581 23.2579 57.2581 36.8107C57.2581 50.3635 46.2717 61.3499 32.7189 61.3499Z" fill="#189292"/>
<path d="M20.4492 32.7207C18.1896 32.7207 16.3594 30.8905 16.3594 28.6309C16.3594 26.3712 18.1896 24.541 20.4492 24.541H24.5391C26.7988 24.541 28.629 26.3712 28.629 28.6309C28.629 30.8905 26.7988 32.7207 24.5391 32.7207H20.4492Z" fill="#189292"/>
<path d="M44.9885 49.0782C44.9885 51.3378 43.1583 53.168 40.8987 53.168C38.639 53.168 36.8088 51.3378 36.8088 49.0782C36.8088 46.8185 34.9786 44.9883 32.7189 44.9883C30.4593 44.9883 28.6291 46.8185 28.6291 49.0782C28.6291 51.3378 26.7989 53.168 24.5392 53.168C22.2796 53.168 20.4493 51.3378 20.4493 49.0782C20.4493 42.2992 25.94 36.8086 32.7189 36.8086C39.4979 36.8086 44.9885 42.2992 44.9885 49.0782Z" fill="#189292"/>
<path d="M49.0783 28.6309C49.0783 30.8905 47.2481 32.7207 44.9884 32.7207H40.8986C38.6389 32.7207 36.8087 30.8905 36.8087 28.6309C36.8087 26.3712 38.6389 24.541 40.8986 24.541H44.9884C47.2481 24.541 49.0783 26.3712 49.0783 28.6309Z" fill="#189292"/>
<path d="M200.403 28.6309H204.493C206.753 28.6309 208.583 26.8007 208.583 24.541C208.583 22.2814 206.753 20.4512 204.493 20.4512H200.403C198.144 20.4512 196.313 22.2814 196.313 24.541C196.313 26.8007 198.144 28.6309 200.403 28.6309Z" fill="#189292"/>
<path d="M220.853 28.6309H224.943C227.202 28.6309 229.032 26.8007 229.032 24.541C229.032 22.2814 227.202 20.4512 224.943 20.4512H220.853C218.593 20.4512 216.763 22.2814 216.763 24.541C216.763 26.8007 218.593 28.6309 220.853 28.6309Z" fill="#189292"/>
<path d="M204.493 32.7207C202.233 32.7207 200.403 34.5509 200.403 36.8106C200.403 43.5844 205.899 49.0802 212.673 49.0802C219.447 49.0802 224.942 43.5844 224.942 36.8106C224.942 34.5509 223.112 32.7207 220.853 32.7207C218.593 32.7207 216.763 34.5509 216.763 36.8106C216.763 39.0702 214.932 40.9004 212.673 40.9004C210.413 40.9004 208.583 39.0702 208.583 36.8106C208.583 34.5509 206.753 32.7207 204.493 32.7207Z" fill="#189292"/>
</g>
<defs>
<clipPath id="clip0_445_547">
<rect width="245.392" height="180" fill="white"/>
</clipPath>
</defs>
</svg>
