<svg width="108" height="107" viewBox="0 0 108 107" fill="none" xmlns="http://www.w3.org/2000/svg">
<circle cx="54.0001" cy="53.3321" r="52.1534" stroke="#0AA8A8" stroke-width="2"/>
<path d="M35.0417 66.8737H32.3334C30.8968 66.8737 29.5191 66.303 28.5033 65.2872C27.4874 64.2714 26.9167 62.8936 26.9167 61.457V34.3737C26.9167 32.9371 27.4874 31.5594 28.5033 30.5435C29.5191 29.5277 30.8968 28.957 32.3334 28.957H75.6668C77.1033 28.957 78.4811 29.5277 79.4969 30.5435C80.5127 31.5594 81.0834 32.9371 81.0834 34.3737V61.457C81.0834 62.8936 80.5127 64.2714 79.4969 65.2872C78.4811 66.303 77.1033 66.8737 75.6668 66.8737H72.9584" stroke="#0AA8A8" stroke-width="2" stroke-linecap="round" stroke-linejoin="round"/>
<path d="M53.9999 61.457L67.5416 77.707H40.4583L53.9999 61.457Z" stroke="#0AA8A8" stroke-width="2" stroke-linecap="round" stroke-linejoin="round"/>
</svg>
