<svg width="108" height="107" viewBox="0 0 108 107" fill="none" xmlns="http://www.w3.org/2000/svg">
<circle cx="54.0001" cy="53.3321" r="52.1534" stroke="#0AA8A8" stroke-width="2"/>
<path d="M67.25 42.499C71.7373 42.499 75.375 38.8613 75.375 34.374C75.375 29.8867 71.7373 26.249 67.25 26.249C62.7627 26.249 59.125 29.8867 59.125 34.374C59.125 38.8613 62.7627 42.499 67.25 42.499Z" stroke="#0AA8A8" stroke-width="2" stroke-linecap="round" stroke-linejoin="round"/>
<path d="M34.75 61.457C39.2373 61.457 42.875 57.8193 42.875 53.332C42.875 48.8447 39.2373 45.207 34.75 45.207C30.2627 45.207 26.625 48.8447 26.625 53.332C26.625 57.8193 30.2627 61.457 34.75 61.457Z" stroke="#0AA8A8" stroke-width="2" stroke-linecap="round" stroke-linejoin="round"/>
<path d="M67.25 80.415C71.7373 80.415 75.375 76.7774 75.375 72.29C75.375 67.8027 71.7373 64.165 67.25 64.165C62.7627 64.165 59.125 67.8027 59.125 72.29C59.125 76.7774 62.7627 80.415 67.25 80.415Z" stroke="#0AA8A8" stroke-width="2" stroke-linecap="round" stroke-linejoin="round"/>
<path d="M41.7645 57.4219L60.2624 68.201" stroke="#0AA8A8" stroke-width="2" stroke-linecap="round" stroke-linejoin="round"/>
<path d="M60.2354 38.4629L41.7645 49.2421" stroke="#0AA8A8" stroke-width="2" stroke-linecap="round" stroke-linejoin="round"/>
</svg>
