<svg width="100" height="100" viewBox="0 0 100 100" fill="none" xmlns="http://www.w3.org/2000/svg">
<rect width="100" height="100" transform="translate(-0.00854492 0.00585938)" fill="white"/>
<path d="M74.9915 33.3389C81.895 33.3389 87.4915 27.7424 87.4915 20.8389C87.4915 13.9353 81.895 8.33887 74.9915 8.33887C68.0879 8.33887 62.4915 13.9353 62.4915 20.8389C62.4915 27.7424 68.0879 33.3389 74.9915 33.3389Z" stroke="#404C52" stroke-width="4" stroke-linecap="round" stroke-linejoin="round"/>
<path d="M24.9915 62.5059C31.895 62.5059 37.4915 56.9094 37.4915 50.0059C37.4915 43.1023 31.895 37.5059 24.9915 37.5059C18.0879 37.5059 12.4915 43.1023 12.4915 50.0059C12.4915 56.9094 18.0879 62.5059 24.9915 62.5059Z" stroke="#404C52" stroke-width="4" stroke-linecap="round" stroke-linejoin="round"/>
<path d="M74.9915 91.6729C81.895 91.6729 87.4915 86.0764 87.4915 79.1729C87.4915 72.2693 81.895 66.6729 74.9915 66.6729C68.0879 66.6729 62.4915 72.2693 62.4915 79.1729C62.4915 86.0764 68.0879 91.6729 74.9915 91.6729Z" stroke="#404C52" stroke-width="4" stroke-linecap="round" stroke-linejoin="round"/>
<path d="M35.7831 56.2979L64.2414 72.8812" stroke="#404C52" stroke-width="4" stroke-linecap="round" stroke-linejoin="round"/>
<path d="M64.1997 27.1309L35.7831 43.7142" stroke="#404C52" stroke-width="4" stroke-linecap="round" stroke-linejoin="round"/>
</svg>
