<svg width="107" height="107" viewBox="0 0 107 107" fill="none" xmlns="http://www.w3.org/2000/svg">
<circle cx="53.5001" cy="53.6749" r="52.1534" stroke="#0AA8A8" stroke-width="2"/>
<g clip-path="url(#clip0_149_174)">
<path d="M27.2903 42.1426H31.4838V44.2394H27.2903V42.1426Z" fill="#0AA8A8"/>
<path d="M82.8548 37.949C84.5886 37.949 86 36.5376 86 34.8038V24.32C86 22.5862 84.5886 21.1748 82.8548 21.1748H68.1774C66.4436 21.1748 65.0323 22.5862 65.0323 24.32V34.8038C65.0323 36.5376 66.4436 37.949 68.1774 37.949H71.3226V40.0458H69.2258V42.1425H74.4677V52.6264H70.141C69.3047 51.81 68.2747 51.1849 67.1218 50.8409C67.1271 50.7349 67.129 50.6325 67.129 50.5296C67.129 45.9049 63.3666 42.1425 58.7419 42.1425C55.8726 42.1425 53.2057 43.6352 51.6782 46.0229C50.6029 45.5389 49.4372 45.2883 48.2581 45.2877C44.7787 45.2877 41.6458 47.4807 40.4202 50.6975C39.6237 50.8685 38.8814 51.1745 38.2073 51.578H30.4355V48.4329H34.629C36.3628 48.4329 37.7742 47.0215 37.7742 45.2877V24.32C37.7742 22.5862 36.3628 21.1748 34.629 21.1748H24.1452C22.4114 21.1748 21 22.5862 21 24.32V45.2877C21 47.0215 22.4114 48.4329 24.1452 48.4329H28.3387V53.6748H35.9775C35.5276 54.3146 35.1834 55.0225 34.9582 55.7716H30.4355V67.3038H26.2419C24.5082 67.3038 23.0968 68.7152 23.0968 70.449V79.8845H21V83.0296C21 84.7634 22.4114 86.1748 24.1452 86.1748H40.9194C42.6531 86.1748 44.0645 84.7634 44.0645 83.0296V79.8845H41.9677V70.449C41.9677 68.7152 40.5564 67.3038 38.8226 67.3038H32.5323V57.8684H34.629C34.629 61.9139 37.9221 65.2071 41.9677 65.2071H65.0323C68.7215 65.2071 71.7756 62.4668 72.2871 58.9167H76.5645V67.3038H69.2258V86.1748H86V67.3038H78.6613V56.82H72.2829C72.1739 56.0818 71.9477 55.3795 71.6308 54.7232H76.5645V42.1425H81.8064V40.0458H79.7097V37.949H82.8548ZM35.6774 37.949H23.0968V27.4651H35.6774V37.949ZM24.1452 23.2716H34.629C35.2075 23.2716 35.6774 23.7415 35.6774 24.32V25.3684H23.0968V24.32C23.0968 23.7415 23.5667 23.2716 24.1452 23.2716ZM23.0968 45.2877V40.0458H35.6774V45.2877C35.6774 45.8662 35.2075 46.3361 34.629 46.3361H24.1452C23.5667 46.3361 23.0968 45.8662 23.0968 45.2877ZM41.9677 83.0296C41.9677 83.6081 41.4978 84.078 40.9194 84.078H24.1452C23.5667 84.078 23.0968 83.6081 23.0968 83.0296V81.9813H41.9677V83.0296ZM39.871 70.449V79.8845H25.1935V70.449C25.1935 69.8705 25.6635 69.4006 26.2419 69.4006H38.8226C39.401 69.4006 39.871 69.8705 39.871 70.449ZM71.3226 84.078V77.7877H83.9032V84.078H71.3226ZM83.9032 75.6909H71.3226V69.4006H83.9032V75.6909ZM65.0323 63.1103H41.9677C39.0775 63.1103 36.7258 60.7586 36.7258 57.8684C36.7258 55.2182 38.7095 52.9827 41.3387 52.6684L42.0267 52.5855L42.2207 51.9199C42.9962 49.2493 45.4798 47.3845 48.2581 47.3845C49.4155 47.3845 50.5519 47.7095 51.548 48.3228L52.5488 48.9402L53.048 47.8738C54.08 45.6651 56.3149 44.2393 58.7419 44.2393C62.2112 44.2393 65.0323 47.0604 65.0323 50.5296C65.0323 50.8189 65.006 51.1271 64.9493 51.4991L64.7911 52.5364L65.8277 52.6935C68.3627 53.0805 70.2742 55.3053 70.2742 57.8684C70.2742 60.7586 67.9225 63.1103 65.0323 63.1103ZM68.1774 23.2716H82.8548C83.4333 23.2716 83.9032 23.7415 83.9032 24.32V31.6587H67.129V24.32C67.129 23.7415 67.599 23.2716 68.1774 23.2716ZM67.129 34.8038V33.7554H83.9032V34.8038C83.9032 35.3823 83.4333 35.8522 82.8548 35.8522H68.1774C67.599 35.8522 67.129 35.3823 67.129 34.8038ZM77.6129 40.0458H73.4194V37.949H77.6129V40.0458Z" fill="#0AA8A8"/>
<path d="M73.4194 71.4971H75.5162V73.5938H73.4194V71.4971ZM79.7098 79.8842H81.8065V81.9809H79.7098V79.8842ZM77.613 71.4971H81.8065V73.5938H77.613V71.4971ZM73.4194 79.8842H77.613V81.9809H73.4194V79.8842Z" fill="#0AA8A8"/>
</g>
<defs>
<clipPath id="clip0_149_174">
<rect width="65" height="65" fill="white" transform="translate(21 21.1748)"/>
</clipPath>
</defs>
</svg>
