<svg width="103" height="103" viewBox="0 0 103 103" fill="none" xmlns="http://www.w3.org/2000/svg">
<circle cx="51.5001" cy="51.6749" r="50.1534" stroke="#0AA8A8" stroke-width="2"/>
<path d="M70.4583 48.9668H32.5417C29.5501 48.9668 27.125 51.3919 27.125 54.3835V73.3418C27.125 76.3333 29.5501 78.7585 32.5417 78.7585H70.4583C73.4499 78.7585 75.875 76.3333 75.875 73.3418V54.3835C75.875 51.3919 73.4499 48.9668 70.4583 48.9668Z" stroke="#0AA8A8" stroke-width="2" stroke-linecap="round" stroke-linejoin="round"/>
<path d="M37.9583 48.9668V38.1335C37.9583 34.542 39.385 31.0976 41.9245 28.5581C44.4641 26.0185 47.9084 24.5918 51.4999 24.5918C55.0914 24.5918 58.5358 26.0185 61.0753 28.5581C63.6149 31.0976 65.0416 34.542 65.0416 38.1335V48.9668" stroke="#0AA8A8" stroke-width="2" stroke-linecap="round" stroke-linejoin="round"/>
</svg>
