<svg width="192" height="192" viewBox="0 0 192 192" fill="none" xmlns="http://www.w3.org/2000/svg">
<g clip-path="url(#clip0_442_529)">
<mask id="mask0_442_529" style="mask-type:luminance" maskUnits="userSpaceOnUse" x="0" y="0" width="192" height="192">
<path d="M192 0H0V192H192V0Z" fill="white"/>
</mask>
<g mask="url(#mask0_442_529)">
<path d="M166.717 36.2557C162.03 40.9432 154.432 40.9432 149.745 36.2557C145.057 31.5682 145.057 23.9707 149.745 19.2832C154.432 14.5957 162.03 14.5957 166.717 19.2832C171.405 23.9707 171.405 31.5682 166.717 36.2557Z" stroke="#189292" stroke-width="9" stroke-linecap="round" stroke-linejoin="round"/>
<path d="M42.255 172.717C37.5675 177.404 29.97 177.404 25.2825 172.717C20.595 168.029 20.595 160.432 25.2825 155.744C29.97 151.057 37.5675 151.057 42.255 155.744C46.9425 160.432 46.9425 168.029 42.255 172.717Z" stroke="#189292" stroke-width="9" stroke-linecap="round" stroke-linejoin="round"/>
<path d="M77.8088 186.458C83.7976 187.655 89.8913 188.255 96.0001 188.251C146.948 188.251 188.25 146.948 188.25 96.0008C188.25 73.7595 180.379 53.3595 167.269 37.4258" stroke="#189292" stroke-width="9" stroke-linecap="round" stroke-linejoin="round"/>
<path d="M114.368 5.58002C108.323 4.36127 102.169 3.74627 96 3.75002C45.0525 3.75002 3.75 45.0525 3.75 96C3.75 118.241 11.6212 138.641 24.7312 154.575" stroke="#189292" stroke-width="9" stroke-linecap="round" stroke-linejoin="round"/>
<path d="M95.9999 123.236C80.9587 123.236 68.7637 111.041 68.7637 96C68.7637 80.9587 80.9587 68.7637 95.9999 68.7637C111.041 68.7637 123.236 80.9587 123.236 96C123.236 111.041 111.041 123.236 95.9999 123.236ZM150.315 84.2437C148.909 77.7037 146.329 71.4713 142.695 65.8538L149.88 58.6687L133.294 42.0938L126.112 49.275C120.495 45.6412 114.262 43.0613 107.722 41.655V31.5H84.2737V41.655C77.7337 43.0613 71.5012 45.6412 65.8837 49.275L58.7062 42.0938L42.1199 58.6687L49.3049 65.8538C45.6712 71.4713 43.0912 77.7037 41.6849 84.2437H31.5037L31.4924 107.692H41.6849C43.0912 114.232 45.6712 120.465 49.3049 126.083L42.0937 133.294L58.6687 149.88L65.8874 142.661C71.5049 146.295 77.7374 148.875 84.2774 150.281V160.5H107.726V150.281C114.266 148.875 120.499 146.295 126.116 142.661L133.335 149.88L149.91 133.294L142.699 126.083C146.332 120.465 148.912 114.232 150.319 107.692H160.511V84.2437H150.319H150.315Z" stroke="#189292" stroke-width="9" stroke-linecap="round" stroke-linejoin="round"/>
</g>
</g>
<defs>
<clipPath id="clip0_442_529">
<rect width="192" height="192" fill="white"/>
</clipPath>
</defs>
</svg>
