<svg width="100" height="101" viewBox="0 0 100 101" fill="none" xmlns="http://www.w3.org/2000/svg">
<g clip-path="url(#clip0_149_214)">
<path d="M49.7582 75.7145C46.2743 75.7276 42.8386 74.9015 39.7415 73.3062C30.8207 68.6895 26.0415 59.5937 27.2665 49.577C27.7498 45.5978 28.8998 39.902 33.229 36.3562C33.7207 35.9548 34.304 35.6813 34.927 35.5599C35.55 35.4385 36.1934 35.473 36.7998 35.6603C37.442 35.8553 38.0263 36.2056 38.5008 36.6802C38.9754 37.1547 39.3257 37.739 39.5207 38.3812C39.8748 39.5353 40.2832 40.4937 40.8123 41.3395C41.6665 34.1978 45.0665 25.2645 52.704 18.3978C53.2294 17.9212 53.8743 17.5961 54.57 17.4574C55.2657 17.3187 55.986 17.3716 56.654 17.6103C57.3399 17.8574 57.9463 18.2851 58.4091 18.8484C58.8719 19.4117 59.1739 20.0895 59.2832 20.8103C60.0915 25.9853 62.8582 30.0853 65.7915 34.4228C70.6457 41.602 75.6582 49.027 71.1998 61.177C69.0457 67.0312 64.3165 71.7478 58.2165 74.1145C55.5207 75.1678 52.6524 75.7104 49.7582 75.7145ZM35.5332 39.5978C33.454 41.5562 32.0332 44.8937 31.3998 50.0812C30.379 58.452 34.2123 65.752 41.654 69.6103C46.1957 71.9603 51.679 72.1895 56.704 70.2353C61.6873 68.2978 65.5415 64.477 67.279 59.7437C71.0082 49.5937 66.9915 43.6478 62.3332 36.7562C59.2748 32.2312 56.1123 27.552 55.1582 21.452C47.029 29.0978 44.4332 39.4978 44.779 46.0895C44.8032 46.4836 44.7143 46.8765 44.523 47.2219C44.3317 47.5673 44.0457 47.851 43.6988 48.0396C43.3518 48.2281 42.9583 48.3138 42.5643 48.2865C42.1704 48.2591 41.7924 48.12 41.4748 47.8853C38.3707 45.6228 36.6498 43.2228 35.5332 39.5978Z" fill="#404C52"/>
<path d="M49.9915 100.715C49.8126 100.716 49.6345 100.693 49.4623 100.644C49.0498 100.54 8.32483 89.3814 8.32483 51.4606V17.3815C8.32493 16.9555 8.45559 16.5398 8.69921 16.1904C8.94282 15.841 9.28769 15.5747 9.68733 15.4273L49.2707 0.843952C49.736 0.67311 50.247 0.67311 50.7123 0.843952L90.2957 15.4273C90.6953 15.5747 91.0402 15.841 91.2838 16.1904C91.5274 16.5398 91.6581 16.9555 91.6582 17.3815V51.4606C91.6582 89.3856 50.9332 100.54 50.5207 100.648C50.3479 100.693 50.17 100.716 49.9915 100.715ZM12.4915 18.8356V51.4606C12.4915 84.3023 45.1998 95.069 49.9915 96.469C54.7832 95.069 87.4915 84.3023 87.4915 51.4606V18.8356L49.9915 5.01895L12.4915 18.8356Z" fill="#404C52"/>
</g>
<defs>
<clipPath id="clip0_149_214">
<rect width="100" height="100" fill="white" transform="translate(-0.00854492 0.714844)"/>
</clipPath>
</defs>
</svg>
