<svg width="240" height="240" viewBox="0 0 240 240" fill="none" xmlns="http://www.w3.org/2000/svg">
<path d="M25.1001 47.7012V124.001C25.1001 198.851 114.35 235.601 118.15 237.101C118.75 237.351 119.4 237.451 120 237.451C120.6 237.451 121.25 237.351 121.85 237.101C125.65 235.551 214.9 198.801 214.9 124.001V47.7012C214.9 45.1012 212.9 42.9512 210.35 42.7012C209.9 42.6512 166.4 38.4012 123.15 3.60117C121.3 2.15117 118.7 2.15117 116.9 3.60117C73.7501 38.3012 30.1001 42.6512 29.6501 42.7012C28.4035 42.8138 27.2445 43.3899 26.4021 44.3157C25.5596 45.2414 25.0951 46.4495 25.1001 47.7012ZM35.1001 52.0512C47.5501 50.1012 83.3001 42.2512 120 13.8512C156.7 42.2512 192.45 50.1012 204.9 52.0512V124.001C204.9 186.401 132.65 221.401 120 227.051C107.35 221.401 35.1001 186.451 35.1001 124.001V52.0512Z" fill="#189292"/>
<path d="M117.65 203.601C118.4 204.001 119.2 204.201 120 204.201C120.8 204.201 121.6 204.001 122.35 203.601C145.7 191.101 184.9 164.101 184.9 124.001V71.9012C184.9 69.6512 183.45 67.7012 181.3 67.1012C167.15 63.0012 145.5 55.0512 122.75 40.3012C121.1 39.2512 118.95 39.2512 117.3 40.3012C99.1731 52.0023 79.4536 61.0285 58.7502 67.1012C56.6002 67.7012 55.1502 69.7012 55.1502 71.9012V124.001C55.1002 164.101 94.3002 191.101 117.65 203.601ZM65.1002 75.6012C79.2002 71.2512 99.0502 63.5512 120 50.4012C140.95 63.5512 160.8 71.2512 174.9 75.6012V124.001C174.9 158.651 138.25 183.351 120 193.501C101.75 183.351 65.1002 158.651 65.1002 124.001V75.6012Z" fill="#189292"/>
<path d="M108.8 143.652C110.15 143.652 111.4 143.102 112.35 142.202L157.1 97.4515C158.035 96.5166 158.56 95.2486 158.56 93.9265C158.56 92.6044 158.035 91.3364 157.1 90.4015C156.165 89.4666 154.897 88.9414 153.575 88.9414C152.253 88.9414 150.985 89.4666 150.05 90.4015L108.85 131.602L90.0003 112.752C89.0654 111.817 87.7975 111.291 86.4753 111.291C85.1532 111.291 83.8852 111.817 82.9503 112.752C82.0155 113.686 81.4902 114.954 81.4902 116.277C81.4902 117.599 82.0155 118.867 82.9503 119.802L105.35 142.202C106.2 143.102 107.5 143.652 108.8 143.652Z" fill="#189292"/>
</svg>
