<svg width="773" height="260" viewBox="0 0 773 260" fill="none" xmlns="http://www.w3.org/2000/svg">
<g clip-path="url(#clip0_255_365)">
<path d="M770.502 151.233L702.36 161.218L713.547 135.688L773 133.214L772.894 130.972L714.564 133.401L733.714 89.6936L770.511 106.697L772.406 107.571L772.951 106.57V105.314L770.511 104.185L734.625 87.6084L770.511 5.72496L770.73 5.23169L772.951 3.90135V2.56353L772.3 1.64425L772.837 0.418535L771.707 0H770.389L769.412 2.24215L768.753 3.72945L768.745 3.73692L722.227 31.562L740.646 2.24215L741.703 0.560538L740.646 0H739.238L737.831 2.24215L717.72 34.2526H717.712V34.2676L674.773 59.9477L668.916 57.2347L706.241 2.24215L707.364 0.590433L706.331 0H704.899L703.377 2.24215L666.711 56.2332L633.202 40.7399L669.371 2.24215L670.787 0.732436L669.86 0H668.241L666.142 2.24215L630.948 39.701L585.39 18.6547L608.242 2.24215L610.138 0.881913L609.389 0H607.412L604.288 2.24215L582.99 17.5411L549.879 2.24215L545.022 0H542.313L541.768 1.00149L544.453 2.24215L580.867 19.0658L559.275 34.574L537.35 2.24215L535.829 0H532.461L528.109 2.24215L414.872 60.5904L407.07 52.9746L462.163 2.24215L463.741 0.792227L462.879 0H461.154L458.722 2.24215L405.394 51.3453L355.053 2.24215L352.75 0H351.074L350.188 0.769806L351.701 2.24215L403.67 52.9297L370.542 83.438L348.675 94.7085L229.882 2.24215L227.002 0H225.114L224.325 0.852018L226.115 2.24215L345.99 95.5531L102.311 2.24215L96.4531 0H93.2885L92.8166 1.03139L95.9813 2.24215L343.883 97.1749L303.043 118.229H303.035L35.8608 64.3199L35.3401 66.5097L299.846 119.873L236.008 152.773L113.334 94.0882L112.211 96.0762L232.16 153.453L80.6298 159.753L80.7356 161.996L230.158 155.785L122.145 211.45L0.374228 193.976L0 196.188L118.703 213.221L32.2731 257.758L29.8243 259.021L30.4182 260H32.9158L37.2601 257.758L122.6 213.782L214.644 226.988L207.298 233.752L43.4918 257.758L35.7388 258.894L35.934 260H43.6789L58.9816 257.758L204.361 236.457L181.232 257.758L179.654 259.208L180.516 260H182.241L184.673 257.758L208.453 235.859L242.101 230.927L278.572 236.158L248.495 257.758L246.6 259.118L247.348 260H249.325L252.449 257.758L281.859 236.629H281.867L360.455 247.907L343.997 257.758L341.825 259.058L342.492 260H344.737L348.479 257.758L364.083 248.43L426.457 257.377L426.099 257.758L424.683 259.268L425.611 260H427.23L429.304 257.788L444.713 260H452.612L452.783 258.991L454.89 260H457.526L458.087 259.006L455.476 257.758L437.44 249.126L482.152 201.532L538.343 245.277L529.866 257.758L528.743 259.41L529.776 260H531.208L532.73 257.758L540.222 246.734L554.378 257.758L557.258 260H559.145L559.934 259.148L558.144 257.758L541.524 244.813L564.986 210.262L591.125 235.755L577.303 257.758L576.246 259.439L577.303 260H578.711L580.118 257.758L592.874 237.459L613.677 257.758L615.979 260H617.655L618.542 259.23L617.028 257.758L594.144 235.433L615.629 201.233L672.626 223.064L657.421 257.758L656.623 259.581L657.754 260H659.072L660.048 257.758L674.879 223.924L688.262 229.051L707.73 257.758L709.251 260H710.683L711.716 259.41L710.594 257.758L692.142 230.538L733.299 246.293L728.06 257.758L727.238 259.566L728.361 260H729.679L730.704 257.758L735.545 247.16L763.229 257.758L769.087 260H772.268L772.74 258.969L769.575 257.758L736.488 245.09L752.003 211.091L770.502 214.821L772.683 215.262L772.943 214.17V213.019L770.502 212.526L752.963 208.991L770.502 170.561L772.943 165.209V162.317L771.82 161.883L770.502 164.768L750.546 208.498L687.237 195.732L701.295 163.647L770.502 153.505L772.943 153.146V152.01L772.748 150.904L770.502 151.233ZM710.87 135.8L699.546 161.629L650.31 168.842L642.866 157.87L655.281 138.109L710.87 135.792V135.8ZM487.163 192.75L476.62 194.29L467.053 186.846L508.616 161.988L514.88 163.251L487.171 192.743H487.163V192.75ZM484.698 195.381L481.875 198.386L479.069 196.203L484.698 195.381ZM362.505 213.281L436.488 202.444L393.541 228.132L362.505 213.281ZM441.516 199.439L358.876 211.547L333.616 199.462L404.54 148.535L413.579 148.154L462.969 186.607L441.532 199.432H441.516V199.439ZM301.034 220.022L242.077 228.655H242.068L219.753 225.456L275.456 174.163L329.133 199.843L301.042 220.015H301.034V220.022ZM658.73 72.2048L674.92 62.5262L694.315 71.4873L653.833 135.919L628.703 136.966L621.739 126.697L658.73 72.2197V72.2048ZM594.502 177.018H594.485L588.392 175.792L612.782 139.873L627.385 139.268L640.027 157.907L631.42 171.614L594.502 177.018ZM629.85 174.111L624.253 183.019L601.018 178.333L629.85 174.111ZM568.639 180.807L531.582 166.622L584.503 177.294L583.608 178.617L568.647 180.807H568.639ZM465.1 185.329L417.15 148.012L435.536 147.242L505.273 161.315L465.108 185.329H465.1ZM409.397 141.973L409.649 142.025L409.552 142.093L409.397 141.973ZM497.715 144.656L511.171 157.78L510.121 158.408L476.538 145.538L497.723 144.656H497.715ZM517.394 160.575L514.954 158.199L525.619 151.816L517.394 160.575ZM512.904 159.469L512.863 159.447L512.895 159.469H512.904ZM533.006 147.399L540.564 142.877L609.829 139.993L585.87 175.284L519.412 161.876L533.006 147.399ZM533.755 143.161L531.387 145.688H531.379L513.245 156.54L500.936 144.522L533.755 143.154V143.161ZM470.803 145.777L505.525 159.073L444.949 146.854H444.941L470.803 145.777ZM435.715 144.993L415.23 140.859L430.085 130.187L465.515 143.752L435.715 144.993ZM414.417 145.874L411.447 143.572L412.733 142.646L426.302 145.381H426.311L414.417 145.874ZM412.139 140.232L405.427 138.879L359.552 103.176L427.506 129.2L412.139 140.232ZM410.837 146.024L407.859 146.151L409.487 144.978L410.837 146.024ZM587.025 177.81L587.912 177.99L586.789 178.154L587.025 177.81ZM614.352 137.564L620.291 128.812L625.904 137.085L614.352 137.564ZM641.492 160.067L647.699 169.23L634.519 171.158L641.492 160.067ZM630.175 139.155L652.393 138.229L641.41 155.71L630.183 139.155H630.175ZM620.299 124.581L606.119 103.67L653.906 75.0972L620.299 124.581ZM618.859 126.697L611.399 137.683L544.607 140.463L604.077 104.895L618.859 126.697ZM539.791 140.665L539.311 140.688L591.02 85.6427L602.783 102.99L539.791 140.665ZM535.951 140.822L498.732 142.369L462.432 106.966L558.641 37.87L589.677 83.6472L535.959 140.822H535.951ZM495.51 142.504L471.242 143.513L432.29 128.602L460.487 108.348L495.51 142.504ZM429.711 127.616L356.468 99.5665L372.023 85.2466L414.408 63.4006L458.811 106.712L429.711 127.616ZM400.334 137.855L330.248 123.714L354.028 101.809L400.334 137.855ZM404.296 140.942H404.304L407.591 143.498L403.662 146.323L301.058 150.59L328.206 125.59L404.296 140.942ZM400.342 148.707L331.249 198.326L277.262 172.504L298.512 152.945L400.35 148.707H400.342ZM294.9 153.094L274.992 171.42L241.336 155.321H241.328L294.908 153.087L294.9 153.094ZM331.509 200.979L354.833 212.138L306.013 219.29L331.509 200.979ZM464.913 188.124L473.447 194.761L447.454 198.565L464.913 188.124ZM517.476 163.931L539.205 185.12L490.922 192.197L517.476 163.931ZM522.528 165.583L564.043 181.48L542.118 184.694L522.528 165.583ZM568.33 183.124L578.027 186.839L564.596 206.614L544.143 186.667L568.33 183.124ZM572.926 182.451L581.892 181.136L579.337 184.91L572.926 182.451ZM585.081 180.673L594.436 179.305H594.445L622.967 185.06L614.588 198.408L581.607 185.777L585.081 180.673ZM632.949 173.655L649.098 171.293L662.253 190.688L626.75 183.528L632.949 173.655ZM711.871 133.505L656.729 135.8L696.495 72.4963L731.518 88.6771L711.871 133.505ZM767.159 7.36173L732.429 86.5919L697.715 70.5531L719.518 35.852L767.159 7.36173ZM715.003 38.5575L695.535 69.5441L677.279 61.1136L715.003 38.5575ZM672.39 61.3602L661.806 67.6831L667.598 59.148L672.39 61.3602ZM665.418 58.139L656.965 70.583L604.833 101.764L592.695 83.864L631.558 42.4888L665.418 58.139ZM583.267 20.1794L629.305 41.4499L591.337 81.8685L560.569 36.4798L583.267 20.1794ZM533.096 2.24215L534.113 1.71898L534.47 2.24215L557.339 35.9641L460.748 105.329L416.597 62.272L533.096 2.24215ZM405.346 54.5665L412.684 61.719L378.361 79.4096L405.346 54.5665ZM364.205 89.275L354.036 98.6323L353.409 98.3931L350.66 96.2556L364.205 89.275ZM346.746 98.2735L352.132 100.336H352.148L352.165 100.359L327.417 123.146L306.623 118.946L346.746 98.2735ZM303.417 120.59H303.426L325.383 125.022L297.454 150.74L240.336 153.117L303.417 120.59ZM126.042 212.01L235.585 155.561H235.609L236.471 155.516H236.479L273.186 173.079L216.776 225.03L126.042 212.01ZM211.39 233.154L217.622 227.414L234.267 229.806L211.39 233.154ZM249.919 229.783L297.072 222.87L281.2 234.268H281.192L249.919 229.783ZM284.494 234.746L302.034 222.145L358.47 213.879L391.19 229.529L363.522 246.084L284.494 234.746ZM367.134 246.599L393.688 230.725L433.575 249.806L428.336 255.381L367.134 246.599ZM450.196 257.758L452.482 258.849L444.884 257.758L431.184 255.792L435.805 250.874L450.196 257.758ZM435.211 248.064L396.031 229.32L442.427 201.577H442.443L475.896 196.667L480.281 200.082L435.211 248.064ZM539.645 243.356L483.738 199.843L488.449 194.828L541.231 187.1L563.262 208.58L539.645 243.356ZM592.394 233.729L566.321 208.296L580.297 187.706H580.305L613.351 200.366L592.394 233.729ZM616.858 199.275L625.473 185.561L664.051 193.348L677.173 212.691L673.537 220.979L616.858 199.275ZM683.893 197.347L678.296 210.12L667.378 194.021L683.893 197.347ZM675.79 221.846L678.768 215.045L686.033 225.77L675.79 221.846ZM749.586 210.605L734.243 244.223L689.913 227.25L679.899 212.474L686.309 197.84L749.586 210.605ZM684.821 195.239L665.58 191.36L651.71 170.912L698.488 164.058L684.821 195.239Z" fill="black"/>
<g clip-path="url(#clip1_255_365)">
<path d="M770.502 151.233L702.36 161.218L713.547 135.688L773 133.214L772.894 130.972L714.564 133.401L733.714 89.6936L770.511 106.697L772.406 107.571L772.951 106.57V105.314L770.511 104.185L734.625 87.6084L770.511 5.72496L770.73 5.23169L772.951 3.90135V2.56353L772.3 1.64425L772.837 0.418535L771.707 0H770.389L769.412 2.24215L768.753 3.72945L768.745 3.73692L722.227 31.562L740.646 2.24215L741.703 0.560538L740.646 0H739.238L737.831 2.24215L717.72 34.2526H717.712V34.2676L674.773 59.9477L668.916 57.2347L706.241 2.24215L707.364 0.590433L706.331 0H704.899L703.377 2.24215L666.711 56.2332L633.202 40.7399L669.371 2.24215L670.787 0.732436L669.86 0H668.241L666.142 2.24215L630.948 39.701L585.39 18.6547L608.242 2.24215L610.138 0.881913L609.389 0H607.412L604.288 2.24215L582.99 17.5411L549.879 2.24215L545.022 0H542.313L541.768 1.00149L544.453 2.24215L580.867 19.0658L559.275 34.574L537.35 2.24215L535.829 0H532.461L528.109 2.24215L414.872 60.5904L407.07 52.9746L462.163 2.24215L463.741 0.792227L462.879 0H461.154L458.722 2.24215L405.394 51.3453L355.053 2.24215L352.75 0H351.074L350.188 0.769806L351.701 2.24215L403.67 52.9297L370.542 83.438L348.675 94.7085L229.882 2.24215L227.002 0H225.114L224.325 0.852018L226.115 2.24215L345.99 95.5531L102.311 2.24215L96.4531 0H93.2885L92.8166 1.03139L95.9813 2.24215L343.883 97.1749L303.043 118.229H303.035L35.8608 64.3199L35.3401 66.5097L299.846 119.873L236.008 152.773L113.334 94.0882L112.211 96.0762L232.16 153.453L80.6298 159.753L80.7356 161.996L230.158 155.785L122.145 211.45L0.374228 193.976L0 196.188L118.703 213.221L32.2731 257.758L29.8243 259.021L30.4182 260H32.9158L37.2601 257.758L122.6 213.782L214.644 226.988L207.298 233.752L43.4918 257.758L35.7388 258.894L35.934 260H43.6789L58.9816 257.758L204.361 236.457L181.232 257.758L179.654 259.208L180.516 260H182.241L184.673 257.758L208.453 235.859L242.101 230.927L278.572 236.158L248.495 257.758L246.6 259.118L247.348 260H249.325L252.449 257.758L281.859 236.629H281.867L360.455 247.907L343.997 257.758L341.825 259.058L342.492 260H344.737L348.479 257.758L364.083 248.43L426.457 257.377L426.099 257.758L424.683 259.268L425.611 260H427.23L429.304 257.788L444.713 260H452.612L452.783 258.991L454.89 260H457.526L458.087 259.006L455.476 257.758L437.44 249.126L482.152 201.532L538.343 245.277L529.866 257.758L528.743 259.41L529.776 260H531.208L532.73 257.758L540.222 246.734L554.378 257.758L557.258 260H559.145L559.934 259.148L558.144 257.758L541.524 244.813L564.986 210.262L591.125 235.755L577.303 257.758L576.246 259.439L577.303 260H578.711L580.118 257.758L592.874 237.459L613.677 257.758L615.979 260H617.655L618.542 259.23L617.028 257.758L594.144 235.433L615.629 201.233L672.626 223.064L657.421 257.758L656.623 259.581L657.754 260H659.072L660.048 257.758L674.879 223.924L688.262 229.051L707.73 257.758L709.251 260H710.683L711.716 259.41L710.594 257.758L692.142 230.538L733.299 246.293L728.06 257.758L727.238 259.566L728.361 260H729.679L730.704 257.758L735.545 247.16L763.229 257.758L769.087 260H772.268L772.74 258.969L769.575 257.758L736.488 245.09L752.003 211.091L770.502 214.821L772.683 215.262L772.943 214.17V213.019L770.502 212.526L752.963 208.991L770.502 170.561L772.943 165.209V162.317L771.82 161.883L770.502 164.768L750.546 208.498L687.237 195.732L701.295 163.647L770.502 153.505L772.943 153.146V152.01L772.748 150.904L770.502 151.233ZM710.87 135.8L699.546 161.629L650.31 168.842L642.866 157.87L655.281 138.109L710.87 135.792V135.8ZM487.163 192.75L476.62 194.29L467.053 186.846L508.616 161.988L514.88 163.251L487.171 192.743H487.163V192.75ZM484.698 195.381L481.875 198.386L479.069 196.203L484.698 195.381ZM362.505 213.281L436.488 202.444L393.541 228.132L362.505 213.281ZM441.516 199.439L358.876 211.547L333.616 199.462L404.54 148.535L413.579 148.154L462.969 186.607L441.532 199.432H441.516V199.439ZM301.034 220.022L242.077 228.655H242.068L219.753 225.456L275.456 174.163L329.133 199.843L301.042 220.015H301.034V220.022ZM658.73 72.2048L674.92 62.5262L694.315 71.4873L653.833 135.919L628.703 136.966L621.739 126.697L658.73 72.2197V72.2048ZM594.502 177.018H594.485L588.392 175.792L612.782 139.873L627.385 139.268L640.027 157.907L631.42 171.614L594.502 177.018ZM629.85 174.111L624.253 183.019L601.018 178.333L629.85 174.111ZM568.639 180.807L531.582 166.622L584.503 177.294L583.608 178.617L568.647 180.807H568.639ZM465.1 185.329L417.15 148.012L435.536 147.242L505.273 161.315L465.108 185.329H465.1ZM409.397 141.973L409.649 142.025L409.552 142.093L409.397 141.973ZM497.715 144.656L511.171 157.78L510.121 158.408L476.538 145.538L497.723 144.656H497.715ZM517.394 160.575L514.954 158.199L525.619 151.816L517.394 160.575ZM512.904 159.469L512.863 159.447L512.895 159.469H512.904ZM533.006 147.399L540.564 142.877L609.829 139.993L585.87 175.284L519.412 161.876L533.006 147.399ZM533.755 143.161L531.387 145.688H531.379L513.245 156.54L500.936 144.522L533.755 143.154V143.161ZM470.803 145.777L505.525 159.073L444.949 146.854H444.941L470.803 145.777ZM435.715 144.993L415.23 140.859L430.085 130.187L465.515 143.752L435.715 144.993ZM414.417 145.874L411.447 143.572L412.733 142.646L426.302 145.381H426.311L414.417 145.874ZM412.139 140.232L405.427 138.879L359.552 103.176L427.506 129.2L412.139 140.232ZM410.837 146.024L407.859 146.151L409.487 144.978L410.837 146.024ZM587.025 177.81L587.912 177.99L586.789 178.154L587.025 177.81ZM614.352 137.564L620.291 128.812L625.904 137.085L614.352 137.564ZM641.492 160.067L647.699 169.23L634.519 171.158L641.492 160.067ZM630.175 139.155L652.393 138.229L641.41 155.71L630.183 139.155H630.175ZM620.299 124.581L606.119 103.67L653.906 75.0972L620.299 124.581ZM618.859 126.697L611.399 137.683L544.607 140.463L604.077 104.895L618.859 126.697ZM539.791 140.665L539.311 140.688L591.02 85.6427L602.783 102.99L539.791 140.665ZM535.951 140.822L498.732 142.369L462.432 106.966L558.641 37.87L589.677 83.6472L535.959 140.822H535.951ZM495.51 142.504L471.242 143.513L432.29 128.602L460.487 108.348L495.51 142.504ZM429.711 127.616L356.468 99.5665L372.023 85.2466L414.408 63.4006L458.811 106.712L429.711 127.616ZM400.334 137.855L330.248 123.714L354.028 101.809L400.334 137.855ZM404.296 140.942H404.304L407.591 143.498L403.662 146.323L301.058 150.59L328.206 125.59L404.296 140.942ZM400.342 148.707L331.249 198.326L277.262 172.504L298.512 152.945L400.35 148.707H400.342ZM294.9 153.094L274.992 171.42L241.336 155.321H241.328L294.908 153.087L294.9 153.094ZM331.509 200.979L354.833 212.138L306.013 219.29L331.509 200.979ZM464.913 188.124L473.447 194.761L447.454 198.565L464.913 188.124ZM517.476 163.931L539.205 185.12L490.922 192.197L517.476 163.931ZM522.528 165.583L564.043 181.48L542.118 184.694L522.528 165.583ZM568.33 183.124L578.027 186.839L564.596 206.614L544.143 186.667L568.33 183.124ZM572.926 182.451L581.892 181.136L579.337 184.91L572.926 182.451ZM585.081 180.673L594.436 179.305H594.445L622.967 185.06L614.588 198.408L581.607 185.777L585.081 180.673ZM632.949 173.655L649.098 171.293L662.253 190.688L626.75 183.528L632.949 173.655ZM711.871 133.505L656.729 135.8L696.495 72.4963L731.518 88.6771L711.871 133.505ZM767.159 7.36173L732.429 86.5919L697.715 70.5531L719.518 35.852L767.159 7.36173ZM715.003 38.5575L695.535 69.5441L677.279 61.1136L715.003 38.5575ZM672.39 61.3602L661.806 67.6831L667.598 59.148L672.39 61.3602ZM665.418 58.139L656.965 70.583L604.833 101.764L592.695 83.864L631.558 42.4888L665.418 58.139ZM583.267 20.1794L629.305 41.4499L591.337 81.8685L560.569 36.4798L583.267 20.1794ZM533.096 2.24215L534.113 1.71898L534.47 2.24215L557.339 35.9641L460.748 105.329L416.597 62.272L533.096 2.24215ZM405.346 54.5665L412.684 61.719L378.361 79.4096L405.346 54.5665ZM364.205 89.275L354.036 98.6323L353.409 98.3931L350.66 96.2556L364.205 89.275ZM346.746 98.2735L352.132 100.336H352.148L352.165 100.359L327.417 123.146L306.623 118.946L346.746 98.2735ZM303.417 120.59H303.426L325.383 125.022L297.454 150.74L240.336 153.117L303.417 120.59ZM126.042 212.01L235.585 155.561H235.609L236.471 155.516H236.479L273.186 173.079L216.776 225.03L126.042 212.01ZM211.39 233.154L217.622 227.414L234.267 229.806L211.39 233.154ZM249.919 229.783L297.072 222.87L281.2 234.268H281.192L249.919 229.783ZM284.494 234.746L302.034 222.145L358.47 213.879L391.19 229.529L363.522 246.084L284.494 234.746ZM367.134 246.599L393.688 230.725L433.575 249.806L428.336 255.381L367.134 246.599ZM450.196 257.758L452.482 258.849L444.884 257.758L431.184 255.792L435.805 250.874L450.196 257.758ZM435.211 248.064L396.031 229.32L442.427 201.577H442.443L475.896 196.667L480.281 200.082L435.211 248.064ZM539.645 243.356L483.738 199.843L488.449 194.828L541.231 187.1L563.262 208.58L539.645 243.356ZM592.394 233.729L566.321 208.296L580.297 187.706H580.305L613.351 200.366L592.394 233.729ZM616.858 199.275L625.473 185.561L664.051 193.348L677.173 212.691L673.537 220.979L616.858 199.275ZM683.893 197.347L678.296 210.12L667.378 194.021L683.893 197.347ZM675.79 221.846L678.768 215.045L686.033 225.77L675.79 221.846ZM749.586 210.605L734.243 244.223L689.913 227.25L679.899 212.474L686.309 197.84L749.586 210.605ZM684.821 195.239L665.58 191.36L651.71 170.912L698.488 164.058L684.821 195.239Z" fill="black"/>
</g>
</g>
<defs>
<clipPath id="clip0_255_365">
<rect width="773" height="260" fill="white"/>
</clipPath>
<clipPath id="clip1_255_365">
<rect width="773" height="260" fill="white"/>
</clipPath>
</defs>
</svg>
