<?xml version="1.0" encoding="UTF-8"?>
<svg id="Layer_2" data-name="Layer 2" xmlns="http://www.w3.org/2000/svg" viewBox="0 0 996.44 190.45">
  <defs>
    <style>
      .cls-1, .cls-2 {
        fill: #fff;
      }

      .cls-2 {
        font-family: Neuropolitical-Regular, Neuropolitical;
        font-size: 95.84px;
      }
    </style>
  </defs>
  <g id="Layer_1-2" data-name="Layer 1">
    <path class="cls-1" d="M73.26,125.36c-.36-1.33-.18-2.73.52-3.93.69-1.2,1.81-2.05,3.15-2.41.44-.12.89-.18,1.35-.18.89,0,1.78.24,2.58.7,1.2.69,2.05,1.81,2.42,3.14.36,1.33.18,2.73-.52,3.93-.69,1.2-1.81,2.05-3.15,2.41-1.33.36-2.73.18-3.93-.51-1.2-.69-2.05-1.81-2.42-3.15ZM104.94,132.59c1.33-.36,2.45-1.22,3.14-2.42h0c.69-1.2.87-2.59.51-3.93-.36-1.33-1.21-2.45-2.41-3.14-.8-.46-1.69-.69-2.58-.69-.45,0-.9.05-1.35.18-1.33.36-2.45,1.21-3.15,2.42-1.43,2.47-.57,5.65,1.9,7.07,1.2.69,2.6.88,3.93.52ZM130.17,82.37c-.8-.46-1.68-.69-2.58-.69-.45,0-.9.06-1.35.18-1.33.36-2.45,1.22-3.15,2.42-.69,1.2-.88,2.59-.51,3.93.36,1.33,1.21,2.45,2.41,3.14,1.2.69,2.6.88,3.93.52,1.33-.36,2.45-1.21,3.14-2.42,1.43-2.47.58-5.64-1.9-7.07ZM165.94,106.82l24.5-14.1v-31.69c0-3.37-1.34-6.59-3.72-8.97l-22-22-7.36,27.3-36.42,9.76c-.3,3.61-2.8,6.81-6.49,7.8-.76.2-1.53.3-2.3.3-1.52,0-3.03-.4-4.38-1.18-2.04-1.17-3.49-3.07-4.1-5.34s-.3-4.64.88-6.68c1.18-2.04,3.07-3.49,5.34-4.1,2.27-.61,4.64-.3,6.68.88,1.48.85,2.65,2.09,3.41,3.58l33.43-8.96,7.36-27.29-22.41-22.41c-2.38-2.38-5.61-3.72-8.97-3.72h-31.11l14.1,24.51-18.86,32.66c2.34,2.75,2.84,6.79.93,10.1-1.17,2.04-3.07,3.49-5.34,4.1-.75.2-1.53.3-2.29.3-1.53,0-3.03-.4-4.39-1.18-2.04-1.18-3.49-3.07-4.1-5.35-.6-2.27-.3-4.64.88-6.68s3.07-3.49,5.34-4.1c1.65-.44,3.35-.39,4.94.11l17.3-29.97L92.73,0h-31.69c-3.37,0-6.59,1.34-8.97,3.72l-22,22,27.3,7.36,9.75,36.41c1.29.1,2.55.48,3.7,1.15,2.04,1.18,3.5,3.07,4.1,5.34.61,2.27.3,4.64-.88,6.68-1.18,2.04-3.07,3.49-5.34,4.1-.76.21-1.53.3-2.3.3-1.52,0-3.03-.4-4.38-1.18-2.04-1.17-3.5-3.07-4.1-5.35-1.09-4.06.86-8.23,4.45-10.09l-8.96-33.44-27.3-7.36L3.72,52.06c-2.38,2.38-3.72,5.61-3.72,8.97v31.11l24.51-14.1,32.65,18.85c2.75-2.34,6.79-2.84,10.1-.93,2.04,1.18,3.49,3.07,4.1,5.34s.3,4.64-.88,6.68c-1.62,2.82-4.59,4.4-7.63,4.4-1.49,0-3.01-.38-4.38-1.18-2.04-1.18-3.5-3.07-4.11-5.35-.44-1.65-.39-3.35.12-4.94l-29.97-17.31L0,97.73v31.68c0,3.37,1.34,6.59,3.72,8.97l22,22,7.36-27.3,36.42-9.76c.1-1.29.48-2.55,1.14-3.7,1.18-2.04,3.07-3.49,5.34-4.1,3.17-.84,6.54.09,8.91,2.69.28.3.53.63.75.98,1.85,2.95,1.87,6.42.25,9.24-1.18,2.04-3.07,3.49-5.35,4.1-.76.2-1.53.3-2.3.3-1.52,0-3.03-.4-4.38-1.18-1.48-.85-2.65-2.09-3.41-3.58l-33.43,8.96-7.36,27.3,22.4,22.4c2.38,2.38,5.61,3.72,8.97,3.72h31.11l-14.1-24.51,18.85-32.65c-2.34-2.76-2.84-6.8-.93-10.1,1.18-2.04,3.07-3.5,5.35-4.1,2.27-.61,4.64-.3,6.68.88,2.04,1.18,3.49,3.07,4.1,5.34.6,2.27.3,4.64-.88,6.68-1.17,2.04-3.07,3.49-5.35,4.1-.75.21-1.53.3-2.29.3-.9,0-1.79-.14-2.65-.42l-17.3,29.97,14.1,24.5h31.68c3.37,0,6.59-1.34,8.97-3.72l22-22-27.29-7.36-9.76-36.41c-2.19-.17-4.3-1.17-5.93-2.95-.28-.31-.53-.64-.75-.99-1.84-2.96-1.87-6.41-.24-9.24,1.17-2.04,3.07-3.49,5.34-4.1,2.27-.6,4.64-.3,6.68.88s3.5,3.07,4.1,5.34c1.09,4.06-.86,8.23-4.45,10.09l8.96,33.43,27.29,7.36,22.41-22.41c2.38-2.38,3.72-5.61,3.72-8.97v-31.11l-24.51,14.1-32.64-18.85c-.98.84-2.14,1.46-3.43,1.81-.76.21-1.53.31-2.3.31-1.52,0-3.03-.4-4.38-1.18-2.04-1.18-3.49-3.07-4.1-5.34s-.3-4.64.88-6.68c1.17-2.04,3.07-3.49,5.34-4.1,2.27-.61,4.64-.3,6.67.88,3.64,2.11,5.21,6.44,3.99,10.29l29.97,17.3ZM126.61,107.7c-.8-.47-1.68-.7-2.58-.7-.45,0-.9.06-1.35.18-1.33.36-2.45,1.21-3.15,2.41-.69,1.2-.88,2.6-.52,3.93.36,1.33,1.22,2.45,2.42,3.15,1.2.69,2.59.88,3.93.51,2.75-.74,4.4-3.58,3.66-6.34-.36-1.33-1.21-2.45-2.42-3.14ZM114.78,61.94c-.8-.47-1.68-.7-2.58-.7-.45,0-.9.06-1.35.18-1.34.36-2.45,1.21-3.15,2.41-.69,1.2-.88,2.6-.52,3.93.36,1.33,1.22,2.45,2.42,3.15,1.2.69,2.59.88,3.93.51,2.75-.74,4.4-3.58,3.66-6.34-.36-1.33-1.21-2.45-2.42-3.14ZM86.86,57.68c-.45,0-.9.06-1.35.18-1.33.36-2.45,1.21-3.14,2.41-.69,1.2-.88,2.6-.52,3.93.36,1.33,1.21,2.45,2.41,3.14,1.2.69,2.6.88,3.93.52,1.33-.36,2.45-1.21,3.15-2.41,1.43-2.48.57-5.65-1.9-7.08-.8-.46-1.69-.69-2.58-.69ZM60.28,108.08c2.47,1.43,5.64.58,7.07-1.9.69-1.2.88-2.59.51-3.93-.36-1.34-1.21-2.46-2.41-3.15-2.48-1.43-5.65-.58-7.07,1.9-.69,1.2-.88,2.59-.52,3.93.36,1.34,1.21,2.46,2.42,3.15ZM63.84,82.75c1.2.69,2.59.88,3.93.51,1.34-.36,2.46-1.21,3.15-2.41.69-1.2.88-2.6.52-3.93-.36-1.33-1.21-2.45-2.42-3.14-.8-.47-1.69-.7-2.58-.7-.45,0-.91.06-1.35.18-2.76.74-4.4,3.58-3.67,6.34.36,1.33,1.21,2.45,2.42,3.15Z"/>
    <text class="cls-2" transform="translate(239.17 127.79)"><tspan x="0" y="0">TechPower</tspan></text>
  </g>
</svg>