<svg width="59" height="59" viewBox="0 0 59 59" fill="none" xmlns="http://www.w3.org/2000/svg">
<path d="M23.1253 38.3853C23.0173 37.9799 23.0726 37.556 23.2833 37.19C23.4939 36.8267 23.8335 36.566 24.239 36.4581C24.3732 36.4212 24.5101 36.4028 24.6497 36.4028C24.9209 36.4028 25.1921 36.4739 25.4343 36.6161C25.8002 36.8267 26.0582 37.1663 26.1688 37.5718C26.2768 37.9772 26.2215 38.4011 26.0109 38.7671C25.8002 39.1304 25.4606 39.391 25.0551 39.499C24.6497 39.6096 24.2258 39.5516 23.8625 39.3437C23.4965 39.133 23.2385 38.7934 23.1279 38.3879L23.1253 38.3853ZM32.7588 40.5811C33.1642 40.4705 33.5039 40.2098 33.7145 39.8465C33.9251 39.4832 33.9778 39.0593 33.8698 38.6512C33.7619 38.2458 33.5012 37.9061 33.1379 37.6955C32.8957 37.556 32.6245 37.4849 32.3507 37.4849C32.2138 37.4849 32.0769 37.5007 31.94 37.5375C31.5345 37.6455 31.1949 37.9061 30.9843 38.2721C30.5498 39.0224 30.8105 39.9887 31.5608 40.4231C31.9268 40.6337 32.3507 40.689 32.7561 40.5811H32.7588ZM40.4334 25.3081C40.1912 25.1686 39.9227 25.0975 39.6489 25.0975C39.5119 25.0975 39.375 25.1159 39.2381 25.1501C38.8327 25.2607 38.493 25.5214 38.2824 25.8847C38.0718 26.248 38.0165 26.6719 38.1271 27.08C38.235 27.4854 38.4957 27.8251 38.859 28.0357C39.225 28.2463 39.6489 28.3016 40.0543 28.1937C40.4598 28.0857 40.7994 27.8251 41.01 27.4591C41.4444 26.7088 41.1864 25.7425 40.4334 25.3081ZM51.3122 32.7458L58.7631 28.4596V18.8235C58.7631 17.7993 58.3577 16.8173 57.6336 16.0932L50.9436 9.40325L48.7057 17.7072L37.6295 20.6743C37.54 21.7722 36.7791 22.7464 35.6575 23.0465C35.4258 23.1071 35.1915 23.1387 34.9598 23.1387C34.4964 23.1387 34.0383 23.0175 33.625 22.778C33.0063 22.4225 32.5639 21.8433 32.377 21.1535C32.1901 20.4637 32.2875 19.7397 32.6429 19.121C33.001 18.5023 33.5776 18.06 34.2674 17.873C34.9572 17.6887 35.6812 17.7835 36.2999 18.1416C36.7501 18.3996 37.1056 18.7761 37.3372 19.2289L47.5052 16.504L49.7431 8.20268L42.9267 1.38631C42.2027 0.66229 41.2206 0.256836 40.1965 0.256836H30.7368L35.0256 7.71034L29.2913 17.6413C30.0048 18.4786 30.1549 19.7081 29.5731 20.7138C29.2176 21.3325 28.6384 21.7749 27.9486 21.9618C27.7196 22.0223 27.4826 22.0539 27.2535 22.0539C26.7875 22.0539 26.3321 21.9328 25.9187 21.6932C25.3 21.3352 24.8577 20.7586 24.6708 20.0688C24.4865 19.379 24.5812 18.655 24.9393 18.0363C25.2974 17.4175 25.874 16.9752 26.5637 16.7883C27.064 16.654 27.5826 16.6698 28.0671 16.8225L33.3301 7.70771L29.0465 0.256836H19.4104C18.3862 0.256836 17.4042 0.66229 16.6802 1.38631L9.99016 8.07631L18.2941 10.3142L21.2613 21.3878C21.6535 21.4194 22.0353 21.5353 22.3881 21.738C23.0068 22.0961 23.4518 22.6726 23.6361 23.3624C23.8204 24.0522 23.7256 24.7763 23.3701 25.395C23.0121 26.0137 22.4355 26.456 21.7457 26.6429C21.514 26.7061 21.2797 26.7351 21.048 26.7351C20.5846 26.7351 20.1265 26.614 19.7132 26.3744C19.0944 26.019 18.6495 25.4397 18.4652 24.7499C18.1335 23.5152 18.7285 22.2461 19.8185 21.6827L17.0935 11.5148L8.78959 9.27687L1.97323 16.0906C1.2492 16.8146 0.84375 17.7967 0.84375 18.8208V28.2806L8.29989 23.9943L18.2309 29.726C19.0681 29.0125 20.2976 28.8624 21.3034 29.4443C21.9221 29.8023 22.3644 30.3789 22.5513 31.0687C22.7383 31.7585 22.6409 32.4825 22.2828 33.1012C21.7878 33.9595 20.8874 34.4413 19.9606 34.4413C19.5078 34.4413 19.0471 34.3255 18.6258 34.0833C18.0045 33.7252 17.5621 33.1486 17.3778 32.4588C17.2436 31.956 17.2594 31.4399 17.4147 30.9555L8.29726 25.6899L0.84375 29.9787V39.6148C0.84375 40.639 1.2492 41.621 1.97323 42.3451L8.66322 49.0351L10.9011 40.7311L21.9774 37.764C22.009 37.3717 22.1222 36.9899 22.3249 36.6371C22.683 36.0184 23.2596 35.5761 23.9494 35.3892C24.913 35.1338 25.9398 35.4181 26.6585 36.2053C26.7428 36.2975 26.8191 36.3975 26.885 36.5055C27.4457 37.4006 27.4536 38.4564 26.9587 39.3147C26.6006 39.9334 26.024 40.3757 25.3342 40.5626C25.1025 40.6232 24.8682 40.6548 24.6365 40.6548C24.1732 40.6548 23.715 40.5337 23.3017 40.2941C22.8515 40.0361 22.496 39.6596 22.2644 39.2067L12.0964 41.9317L9.85852 50.2356L16.6723 57.0494C17.3963 57.7734 18.3783 58.1788 19.4025 58.1788H28.8648L24.5786 50.7253L30.3102 40.7943C29.5968 39.9545 29.4467 38.7249 30.0285 37.7218C30.3866 37.1031 30.9632 36.6582 31.653 36.4739C32.3428 36.2896 33.0668 36.3844 33.6855 36.7398C34.3042 37.0979 34.7465 37.6744 34.9335 38.3642C35.1178 39.054 35.023 39.7781 34.6649 40.3968C34.3095 41.0155 33.7303 41.4578 33.0405 41.6447C32.8114 41.7079 32.5745 41.7369 32.3454 41.7369C32.0716 41.7369 31.8004 41.6948 31.5398 41.6105L26.2768 50.728L30.563 58.1788H40.1991C41.2233 58.1788 42.2053 57.7734 42.9293 57.0494L49.6193 50.3594L41.3181 48.1215L38.3509 37.0478C37.6874 36.9952 37.0424 36.6924 36.5474 36.15C36.4631 36.0579 36.3868 35.9552 36.3183 35.8499C35.7575 34.9521 35.7497 33.899 36.2446 33.0407C36.6001 32.422 37.1766 31.9797 37.8691 31.7927C38.5589 31.6084 39.2829 31.7032 39.9016 32.0613C40.5203 32.4193 40.9653 32.9959 41.1496 33.6857C41.4813 34.9205 40.8863 36.1895 39.7963 36.7556L42.5213 46.9235L50.8199 49.1614L57.6363 42.3451C58.3603 41.621 58.7657 40.639 58.7657 39.6148V30.1551L51.3122 34.4413L41.3839 28.7097C41.0837 28.9651 40.7309 29.1546 40.3413 29.26C40.1096 29.3231 39.8753 29.3547 39.6436 29.3547C39.1802 29.3547 38.7221 29.231 38.3088 28.994C37.69 28.636 37.2477 28.0594 37.0608 27.3696C36.8739 26.6798 36.9713 25.9558 37.3293 25.3371C37.6848 24.7183 38.2614 24.276 38.9538 24.0891C39.6436 23.9048 40.365 23.9996 40.9837 24.355C42.0921 24.9948 42.5686 26.3138 42.1948 27.4854L51.3122 32.7484V32.7458ZM39.3513 33.0144C39.1091 32.8722 38.8406 32.8011 38.5668 32.8011C38.4299 32.8011 38.293 32.8195 38.156 32.8564C37.7506 32.9643 37.411 33.225 37.2003 33.5883C36.9897 33.9543 36.9344 34.3782 37.0424 34.7836C37.1529 35.1891 37.4136 35.5287 37.7769 35.7393C38.1402 35.95 38.5641 36.0052 38.9722 35.8947C39.8095 35.6709 40.3097 34.8047 40.0859 33.9648C39.978 33.5593 39.7173 33.2197 39.3513 33.0091V33.0144ZM35.7523 19.0973C35.5101 18.9551 35.2415 18.884 34.9677 18.884C34.8308 18.884 34.6939 18.9025 34.557 18.9393C34.1489 19.0473 33.8119 19.3079 33.6013 19.6712C33.3906 20.0372 33.3354 20.4611 33.4433 20.8665C33.5539 21.272 33.8145 21.6116 34.1779 21.8222C34.5412 22.0329 34.9651 22.0882 35.3732 21.9776C36.2104 21.7538 36.7106 20.8876 36.4868 20.0477C36.3789 19.6423 36.1182 19.3026 35.7523 19.092V19.0973ZM27.2614 17.8019C27.1245 17.8019 26.9876 17.8204 26.8507 17.8572C26.4453 17.9652 26.1056 18.2258 25.895 18.5891C25.6844 18.9525 25.6291 19.379 25.737 19.7844C25.845 20.1899 26.1056 20.5295 26.469 20.7402C26.8349 20.9508 27.2588 21.0061 27.6643 20.8981C28.0697 20.7902 28.4094 20.5295 28.62 20.1662C29.0544 19.4132 28.7937 18.4496 28.0434 18.0126C27.8012 17.873 27.53 17.8019 27.2562 17.8019H27.2614ZM19.1787 33.1276C19.929 33.562 20.8953 33.304 21.3297 32.551C21.5403 32.1877 21.5956 31.7638 21.485 31.3583C21.3771 30.9502 21.1164 30.6106 20.7531 30.4026C20.0001 29.9682 19.0365 30.2262 18.6021 30.9792C18.3915 31.3425 18.3362 31.7664 18.4441 32.1719C18.5521 32.5799 18.8127 32.9196 19.1787 33.1276ZM20.2608 25.4239C20.6241 25.6346 21.048 25.6899 21.4534 25.5793C21.8615 25.4713 22.2012 25.2107 22.4092 24.8474C22.6198 24.484 22.6751 24.0575 22.5671 23.6521C22.4566 23.2466 22.1985 22.907 21.8326 22.6963C21.5904 22.5542 21.3192 22.4831 21.048 22.4831C20.9111 22.4831 20.7715 22.5015 20.6373 22.5384C19.7974 22.7622 19.2972 23.6284 19.5236 24.4682C19.6342 24.8737 19.8922 25.2133 20.2581 25.4239H20.2608Z" fill="black"/>
</svg>
